M48
; DRILL file {KiCad 6.0.4-6f826c9f35~116~ubuntu21.10.1} date Sun 20 Mar 2022 22:22:22
; FORMAT={-:-/ absolute / inch / decimal}
; #@! TF.CreationDate,2022-03-20T22:22:22+02:00
; #@! TF.GenerationSoftware,Kicad,Pcbnew,6.0.4-6f826c9f35~116~ubuntu21.10.1
; #@! TF.FileFunction,Plated,1,2,PTH
FMAT,2
INCH
; #@! TA.AperFunction,Plated,PTH,ViaDrill
T1C0.0157
; #@! TA.AperFunction,Plated,PTH,ComponentDrill
T2C0.0197
; #@! TA.AperFunction,Plated,PTH,ComponentDrill
T3C0.0217
; #@! TA.AperFunction,Plated,PTH,ComponentDrill
T4C0.0295
; #@! TA.AperFunction,Plated,PTH,ComponentDrill
T5C0.0315
; #@! TA.AperFunction,Plated,PTH,ComponentDrill
T6C0.0394
%
G90
G05
T1
X3.6962Y-3.9658
X3.9689Y-4.792
X4.289Y-3.6862
X4.7161Y-3.8272
X5.2506Y-4.0021
X5.6008Y-4.1378
X5.7945Y-4.0846
X6.3041Y-3.7365
X6.3291Y-3.3031
X6.411Y-3.4213
X6.4571Y-3.3185
X6.5972Y-4.0951
X6.6389Y-4.1727
X6.6425Y-3.4929
X6.8158Y-4.1298
X7.1323Y-4.2268
X7.1433Y-4.311
T4
X3.6654Y-3.2724
X3.6654Y-3.3224
X3.6654Y-3.3724
T5
X3.6243Y-3.691
X3.6243Y-3.791
X3.6243Y-3.891
X3.6243Y-3.991
X3.922Y-4.3567
X4.022Y-4.3567
X4.6012Y-4.4268
X4.7012Y-4.4268
X5.3969Y-3.2248
X5.3969Y-3.3248
X5.6429Y-3.2
X5.6429Y-3.3
X7.0917Y-3.5362
X7.1917Y-3.5362
T6
X3.4535Y-3.1835
X3.4535Y-3.2835
X3.4535Y-3.3835
X3.4535Y-3.4835
X3.4535Y-3.5835
X3.4535Y-3.6835
X3.4535Y-3.7835
X3.4535Y-3.8835
X3.4535Y-3.9835
X3.4535Y-4.0835
X3.9Y-2.6
X3.9Y-3.0
X3.9Y-4.6
X3.9Y-5.0
X3.9134Y-3.7933
X4.0Y-2.6
X4.0Y-3.0
X4.0Y-4.6
X4.0Y-5.0
X4.1Y-2.6
X4.1Y-3.0
X4.1Y-4.6
X4.1Y-5.0
X4.2Y-2.6
X4.2Y-3.0
X4.2Y-4.6
X4.2Y-5.0
X4.3Y-2.6
X4.3Y-3.0
X4.3Y-4.6
X4.3Y-5.0
X4.4Y-2.6
X4.4Y-3.0
X4.4Y-4.6
X4.4Y-5.0
X4.5Y-2.6
X4.5Y-3.0
X4.5Y-4.6
X4.5Y-5.0
X4.6Y-2.6
X4.6Y-3.0
X4.6Y-4.6
X4.6Y-5.0
X4.7Y-2.6
X4.7Y-3.0
X4.7Y-4.6
X4.7Y-5.0
X4.8Y-2.6
X4.8Y-3.0
X4.8Y-4.6
X4.8Y-5.0
X4.9Y-2.6
X4.9Y-3.0
X4.9Y-4.6
X4.9Y-5.0
X5.0Y-2.6
X5.0Y-3.0
X5.0Y-4.6
X5.0Y-5.0
X5.1Y-2.6
X5.1Y-3.0
X5.1Y-4.6
X5.1Y-5.0
X5.2Y-2.6
X5.2Y-3.0
X5.2Y-4.6
X5.2Y-5.0
X5.3Y-2.6
X5.3Y-3.0
X5.3Y-4.6
X5.3Y-5.0
X5.4Y-2.6
X5.4Y-3.0
X5.4Y-4.6
X5.4Y-5.0
X5.5Y-2.6
X5.5Y-3.0
X5.5Y-4.6
X5.5Y-5.0
X5.6Y-2.6
X5.6Y-3.0
X5.6Y-4.6
X5.6Y-5.0
X5.7Y-2.6
X5.7Y-3.0
X5.7Y-4.6
X5.7Y-5.0
X5.8Y-2.6
X5.8Y-3.0
X5.8Y-4.6
X5.8Y-5.0
X5.9Y-2.6
X5.9Y-3.0
X5.9Y-4.6
X5.9Y-5.0
X6.0Y-2.6
X6.0Y-3.0
X6.0Y-4.6
X6.0Y-5.0
X6.1Y-2.6
X6.1Y-3.0
X6.1Y-4.6
X6.1Y-5.0
X6.2Y-2.6
X6.2Y-3.0
X6.2Y-4.6
X6.2Y-5.0
X6.3Y-2.6
X6.3Y-3.0
X6.3Y-4.6
X6.3Y-5.0
X6.4Y-2.6
X6.4Y-3.0
X6.4Y-4.6
X6.4Y-5.0
X6.5Y-2.6
X6.5Y-3.0
X6.5Y-4.6
X6.5Y-5.0
X6.6Y-2.6
X6.6Y-3.0
X6.6Y-4.6
X6.6Y-5.0
X6.7Y-2.6
X6.7Y-3.0
X6.7Y-4.6
X6.7Y-5.0
X6.7323Y-3.7933
X6.8Y-2.6
X6.8Y-3.0
X6.8Y-4.6
X6.8Y-5.0
X6.9Y-2.6
X6.9Y-3.0
X6.9Y-4.6
X6.9Y-5.0
X7.0Y-2.6
X7.0Y-3.0
X7.0Y-4.6
X7.0Y-5.0
X7.1Y-2.6
X7.1Y-3.0
X7.1Y-4.6
X7.1Y-5.0
T2
G00X7.112Y-3.6661
M15
G01X7.1376Y-3.6661
M16
G05
G00X7.112Y-3.9417
M15
G01X7.1376Y-3.9417
M16
G05
T3
G00X7.0185Y-3.7114
M15
G01X7.0185Y-3.6996
M16
G05
G00X7.0185Y-3.9083
M15
G01X7.0185Y-3.8965
M16
G05
T0
M30
