%TF.GenerationSoftware,KiCad,Pcbnew,6.0.4-6f826c9f35~116~ubuntu21.10.1*%
%TF.CreationDate,2022-03-20T22:22:29+02:00*%
%TF.ProjectId,main,6d61696e-2e6b-4696-9361-645f70636258,rev?*%
%TF.SameCoordinates,Original*%
%TF.FileFunction,Legend,Top*%
%TF.FilePolarity,Positive*%
%FSLAX46Y46*%
G04 Gerber Fmt 4.6, Leading zero omitted, Abs format (unit mm)*
G04 Created by KiCad (PCBNEW 6.0.4-6f826c9f35~116~ubuntu21.10.1) date 2022-03-20 22:22:29*
%MOMM*%
%LPD*%
G01*
G04 APERTURE LIST*
%ADD10C,0.150000*%
%ADD11C,0.120000*%
G04 APERTURE END LIST*
D10*
%TO.C,JP1*%
X100026666Y-112112380D02*
X100026666Y-112826666D01*
X99979047Y-112969523D01*
X99883809Y-113064761D01*
X99740952Y-113112380D01*
X99645714Y-113112380D01*
X100502857Y-113112380D02*
X100502857Y-112112380D01*
X100883809Y-112112380D01*
X100979047Y-112160000D01*
X101026666Y-112207619D01*
X101074285Y-112302857D01*
X101074285Y-112445714D01*
X101026666Y-112540952D01*
X100979047Y-112588571D01*
X100883809Y-112636190D01*
X100502857Y-112636190D01*
X102026666Y-113112380D02*
X101455238Y-113112380D01*
X101740952Y-113112380D02*
X101740952Y-112112380D01*
X101645714Y-112255238D01*
X101550476Y-112350476D01*
X101455238Y-112398095D01*
%TO.C,J4*%
X87386666Y-77982380D02*
X87386666Y-78696666D01*
X87339047Y-78839523D01*
X87243809Y-78934761D01*
X87100952Y-78982380D01*
X87005714Y-78982380D01*
X88291428Y-78315714D02*
X88291428Y-78982380D01*
X88053333Y-77934761D02*
X87815238Y-78649047D01*
X88434285Y-78649047D01*
%TO.C,U1*%
X175788095Y-110682380D02*
X175788095Y-111491904D01*
X175835714Y-111587142D01*
X175883333Y-111634761D01*
X175978571Y-111682380D01*
X176169047Y-111682380D01*
X176264285Y-111634761D01*
X176311904Y-111587142D01*
X176359523Y-111491904D01*
X176359523Y-110682380D01*
X177359523Y-111682380D02*
X176788095Y-111682380D01*
X177073809Y-111682380D02*
X177073809Y-110682380D01*
X176978571Y-110825238D01*
X176883333Y-110920476D01*
X176788095Y-110968095D01*
%TO.C,R1*%
X174353333Y-102292380D02*
X174020000Y-101816190D01*
X173781904Y-102292380D02*
X173781904Y-101292380D01*
X174162857Y-101292380D01*
X174258095Y-101340000D01*
X174305714Y-101387619D01*
X174353333Y-101482857D01*
X174353333Y-101625714D01*
X174305714Y-101720952D01*
X174258095Y-101768571D01*
X174162857Y-101816190D01*
X173781904Y-101816190D01*
X175305714Y-102292380D02*
X174734285Y-102292380D01*
X175020000Y-102292380D02*
X175020000Y-101292380D01*
X174924761Y-101435238D01*
X174829523Y-101530476D01*
X174734285Y-101578095D01*
%TO.C,U7*%
X96112380Y-85151904D02*
X96921904Y-85151904D01*
X97017142Y-85104285D01*
X97064761Y-85056666D01*
X97112380Y-84961428D01*
X97112380Y-84770952D01*
X97064761Y-84675714D01*
X97017142Y-84628095D01*
X96921904Y-84580476D01*
X96112380Y-84580476D01*
X96112380Y-84199523D02*
X96112380Y-83532857D01*
X97112380Y-83961428D01*
%TO.C,C2*%
X168737142Y-105206666D02*
X168784761Y-105254285D01*
X168832380Y-105397142D01*
X168832380Y-105492380D01*
X168784761Y-105635238D01*
X168689523Y-105730476D01*
X168594285Y-105778095D01*
X168403809Y-105825714D01*
X168260952Y-105825714D01*
X168070476Y-105778095D01*
X167975238Y-105730476D01*
X167880000Y-105635238D01*
X167832380Y-105492380D01*
X167832380Y-105397142D01*
X167880000Y-105254285D01*
X167927619Y-105206666D01*
X167927619Y-104825714D02*
X167880000Y-104778095D01*
X167832380Y-104682857D01*
X167832380Y-104444761D01*
X167880000Y-104349523D01*
X167927619Y-104301904D01*
X168022857Y-104254285D01*
X168118095Y-104254285D01*
X168260952Y-104301904D01*
X168832380Y-104873333D01*
X168832380Y-104254285D01*
%TO.C,U5*%
X144053095Y-107247380D02*
X144053095Y-108056904D01*
X144100714Y-108152142D01*
X144148333Y-108199761D01*
X144243571Y-108247380D01*
X144434047Y-108247380D01*
X144529285Y-108199761D01*
X144576904Y-108152142D01*
X144624523Y-108056904D01*
X144624523Y-107247380D01*
X145576904Y-107247380D02*
X145100714Y-107247380D01*
X145053095Y-107723571D01*
X145100714Y-107675952D01*
X145195952Y-107628333D01*
X145434047Y-107628333D01*
X145529285Y-107675952D01*
X145576904Y-107723571D01*
X145624523Y-107818809D01*
X145624523Y-108056904D01*
X145576904Y-108152142D01*
X145529285Y-108199761D01*
X145434047Y-108247380D01*
X145195952Y-108247380D01*
X145100714Y-108199761D01*
X145053095Y-108152142D01*
%TO.C,U8*%
X162008095Y-79772380D02*
X162008095Y-80581904D01*
X162055714Y-80677142D01*
X162103333Y-80724761D01*
X162198571Y-80772380D01*
X162389047Y-80772380D01*
X162484285Y-80724761D01*
X162531904Y-80677142D01*
X162579523Y-80581904D01*
X162579523Y-79772380D01*
X163198571Y-80200952D02*
X163103333Y-80153333D01*
X163055714Y-80105714D01*
X163008095Y-80010476D01*
X163008095Y-79962857D01*
X163055714Y-79867619D01*
X163103333Y-79820000D01*
X163198571Y-79772380D01*
X163389047Y-79772380D01*
X163484285Y-79820000D01*
X163531904Y-79867619D01*
X163579523Y-79962857D01*
X163579523Y-80010476D01*
X163531904Y-80105714D01*
X163484285Y-80153333D01*
X163389047Y-80200952D01*
X163198571Y-80200952D01*
X163103333Y-80248571D01*
X163055714Y-80296190D01*
X163008095Y-80391428D01*
X163008095Y-80581904D01*
X163055714Y-80677142D01*
X163103333Y-80724761D01*
X163198571Y-80772380D01*
X163389047Y-80772380D01*
X163484285Y-80724761D01*
X163531904Y-80677142D01*
X163579523Y-80581904D01*
X163579523Y-80391428D01*
X163531904Y-80296190D01*
X163484285Y-80248571D01*
X163389047Y-80200952D01*
%TO.C,D3*%
X180991904Y-80804880D02*
X180991904Y-79804880D01*
X181230000Y-79804880D01*
X181372857Y-79852500D01*
X181468095Y-79947738D01*
X181515714Y-80042976D01*
X181563333Y-80233452D01*
X181563333Y-80376309D01*
X181515714Y-80566785D01*
X181468095Y-80662023D01*
X181372857Y-80757261D01*
X181230000Y-80804880D01*
X180991904Y-80804880D01*
X181896666Y-79804880D02*
X182515714Y-79804880D01*
X182182380Y-80185833D01*
X182325238Y-80185833D01*
X182420476Y-80233452D01*
X182468095Y-80281071D01*
X182515714Y-80376309D01*
X182515714Y-80614404D01*
X182468095Y-80709642D01*
X182420476Y-80757261D01*
X182325238Y-80804880D01*
X182039523Y-80804880D01*
X181944285Y-80757261D01*
X181896666Y-80709642D01*
%TO.C,D1*%
X182102380Y-111850595D02*
X181102380Y-111850595D01*
X181102380Y-111612500D01*
X181150000Y-111469642D01*
X181245238Y-111374404D01*
X181340476Y-111326785D01*
X181530952Y-111279166D01*
X181673809Y-111279166D01*
X181864285Y-111326785D01*
X181959523Y-111374404D01*
X182054761Y-111469642D01*
X182102380Y-111612500D01*
X182102380Y-111850595D01*
X182102380Y-110326785D02*
X182102380Y-110898214D01*
X182102380Y-110612500D02*
X181102380Y-110612500D01*
X181245238Y-110707738D01*
X181340476Y-110802976D01*
X181388095Y-110898214D01*
%TO.C,J1*%
X175622380Y-96953333D02*
X176336666Y-96953333D01*
X176479523Y-97000952D01*
X176574761Y-97096190D01*
X176622380Y-97239047D01*
X176622380Y-97334285D01*
X176622380Y-95953333D02*
X176622380Y-96524761D01*
X176622380Y-96239047D02*
X175622380Y-96239047D01*
X175765238Y-96334285D01*
X175860476Y-96429523D01*
X175908095Y-96524761D01*
%TO.C,R4*%
X111083333Y-91252380D02*
X110750000Y-90776190D01*
X110511904Y-91252380D02*
X110511904Y-90252380D01*
X110892857Y-90252380D01*
X110988095Y-90300000D01*
X111035714Y-90347619D01*
X111083333Y-90442857D01*
X111083333Y-90585714D01*
X111035714Y-90680952D01*
X110988095Y-90728571D01*
X110892857Y-90776190D01*
X110511904Y-90776190D01*
X111940476Y-90585714D02*
X111940476Y-91252380D01*
X111702380Y-90204761D02*
X111464285Y-90919047D01*
X112083333Y-90919047D01*
%TO.C,R12*%
X172197142Y-89002380D02*
X171863809Y-88526190D01*
X171625714Y-89002380D02*
X171625714Y-88002380D01*
X172006666Y-88002380D01*
X172101904Y-88050000D01*
X172149523Y-88097619D01*
X172197142Y-88192857D01*
X172197142Y-88335714D01*
X172149523Y-88430952D01*
X172101904Y-88478571D01*
X172006666Y-88526190D01*
X171625714Y-88526190D01*
X173149523Y-89002380D02*
X172578095Y-89002380D01*
X172863809Y-89002380D02*
X172863809Y-88002380D01*
X172768571Y-88145238D01*
X172673333Y-88240476D01*
X172578095Y-88288095D01*
X173530476Y-88097619D02*
X173578095Y-88050000D01*
X173673333Y-88002380D01*
X173911428Y-88002380D01*
X174006666Y-88050000D01*
X174054285Y-88097619D01*
X174101904Y-88192857D01*
X174101904Y-88288095D01*
X174054285Y-88430952D01*
X173482857Y-89002380D01*
X174101904Y-89002380D01*
%TO.C,U2*%
X110448095Y-99162380D02*
X110448095Y-99971904D01*
X110495714Y-100067142D01*
X110543333Y-100114761D01*
X110638571Y-100162380D01*
X110829047Y-100162380D01*
X110924285Y-100114761D01*
X110971904Y-100067142D01*
X111019523Y-99971904D01*
X111019523Y-99162380D01*
X111448095Y-99257619D02*
X111495714Y-99210000D01*
X111590952Y-99162380D01*
X111829047Y-99162380D01*
X111924285Y-99210000D01*
X111971904Y-99257619D01*
X112019523Y-99352857D01*
X112019523Y-99448095D01*
X111971904Y-99590952D01*
X111400476Y-100162380D01*
X112019523Y-100162380D01*
%TO.C,J3*%
X182562380Y-76533333D02*
X183276666Y-76533333D01*
X183419523Y-76580952D01*
X183514761Y-76676190D01*
X183562380Y-76819047D01*
X183562380Y-76914285D01*
X182562380Y-76152380D02*
X182562380Y-75533333D01*
X182943333Y-75866666D01*
X182943333Y-75723809D01*
X182990952Y-75628571D01*
X183038571Y-75580952D01*
X183133809Y-75533333D01*
X183371904Y-75533333D01*
X183467142Y-75580952D01*
X183514761Y-75628571D01*
X183562380Y-75723809D01*
X183562380Y-76009523D01*
X183514761Y-76104761D01*
X183467142Y-76152380D01*
%TO.C,C1*%
X172507142Y-110976666D02*
X172554761Y-111024285D01*
X172602380Y-111167142D01*
X172602380Y-111262380D01*
X172554761Y-111405238D01*
X172459523Y-111500476D01*
X172364285Y-111548095D01*
X172173809Y-111595714D01*
X172030952Y-111595714D01*
X171840476Y-111548095D01*
X171745238Y-111500476D01*
X171650000Y-111405238D01*
X171602380Y-111262380D01*
X171602380Y-111167142D01*
X171650000Y-111024285D01*
X171697619Y-110976666D01*
X172602380Y-110024285D02*
X172602380Y-110595714D01*
X172602380Y-110310000D02*
X171602380Y-110310000D01*
X171745238Y-110405238D01*
X171840476Y-110500476D01*
X171888095Y-110595714D01*
%TO.C,R11*%
X172212142Y-83692380D02*
X171878809Y-83216190D01*
X171640714Y-83692380D02*
X171640714Y-82692380D01*
X172021666Y-82692380D01*
X172116904Y-82740000D01*
X172164523Y-82787619D01*
X172212142Y-82882857D01*
X172212142Y-83025714D01*
X172164523Y-83120952D01*
X172116904Y-83168571D01*
X172021666Y-83216190D01*
X171640714Y-83216190D01*
X173164523Y-83692380D02*
X172593095Y-83692380D01*
X172878809Y-83692380D02*
X172878809Y-82692380D01*
X172783571Y-82835238D01*
X172688333Y-82930476D01*
X172593095Y-82978095D01*
X174116904Y-83692380D02*
X173545476Y-83692380D01*
X173831190Y-83692380D02*
X173831190Y-82692380D01*
X173735952Y-82835238D01*
X173640714Y-82930476D01*
X173545476Y-82978095D01*
%TO.C,R2*%
X174443333Y-112232380D02*
X174110000Y-111756190D01*
X173871904Y-112232380D02*
X173871904Y-111232380D01*
X174252857Y-111232380D01*
X174348095Y-111280000D01*
X174395714Y-111327619D01*
X174443333Y-111422857D01*
X174443333Y-111565714D01*
X174395714Y-111660952D01*
X174348095Y-111708571D01*
X174252857Y-111756190D01*
X173871904Y-111756190D01*
X174824285Y-111327619D02*
X174871904Y-111280000D01*
X174967142Y-111232380D01*
X175205238Y-111232380D01*
X175300476Y-111280000D01*
X175348095Y-111327619D01*
X175395714Y-111422857D01*
X175395714Y-111518095D01*
X175348095Y-111660952D01*
X174776666Y-112232380D01*
X175395714Y-112232380D01*
%TO.C,C3*%
X104553333Y-99837142D02*
X104505714Y-99884761D01*
X104362857Y-99932380D01*
X104267619Y-99932380D01*
X104124761Y-99884761D01*
X104029523Y-99789523D01*
X103981904Y-99694285D01*
X103934285Y-99503809D01*
X103934285Y-99360952D01*
X103981904Y-99170476D01*
X104029523Y-99075238D01*
X104124761Y-98980000D01*
X104267619Y-98932380D01*
X104362857Y-98932380D01*
X104505714Y-98980000D01*
X104553333Y-99027619D01*
X104886666Y-98932380D02*
X105505714Y-98932380D01*
X105172380Y-99313333D01*
X105315238Y-99313333D01*
X105410476Y-99360952D01*
X105458095Y-99408571D01*
X105505714Y-99503809D01*
X105505714Y-99741904D01*
X105458095Y-99837142D01*
X105410476Y-99884761D01*
X105315238Y-99932380D01*
X105029523Y-99932380D01*
X104934285Y-99884761D01*
X104886666Y-99837142D01*
%TO.C,R10*%
X139332380Y-104022857D02*
X138856190Y-104356190D01*
X139332380Y-104594285D02*
X138332380Y-104594285D01*
X138332380Y-104213333D01*
X138380000Y-104118095D01*
X138427619Y-104070476D01*
X138522857Y-104022857D01*
X138665714Y-104022857D01*
X138760952Y-104070476D01*
X138808571Y-104118095D01*
X138856190Y-104213333D01*
X138856190Y-104594285D01*
X139332380Y-103070476D02*
X139332380Y-103641904D01*
X139332380Y-103356190D02*
X138332380Y-103356190D01*
X138475238Y-103451428D01*
X138570476Y-103546666D01*
X138618095Y-103641904D01*
X138332380Y-102451428D02*
X138332380Y-102356190D01*
X138380000Y-102260952D01*
X138427619Y-102213333D01*
X138522857Y-102165714D01*
X138713333Y-102118095D01*
X138951428Y-102118095D01*
X139141904Y-102165714D01*
X139237142Y-102213333D01*
X139284761Y-102260952D01*
X139332380Y-102356190D01*
X139332380Y-102451428D01*
X139284761Y-102546666D01*
X139237142Y-102594285D01*
X139141904Y-102641904D01*
X138951428Y-102689523D01*
X138713333Y-102689523D01*
X138522857Y-102641904D01*
X138427619Y-102594285D01*
X138380000Y-102546666D01*
X138332380Y-102451428D01*
%TO.C,D4*%
X180991904Y-86182380D02*
X180991904Y-85182380D01*
X181230000Y-85182380D01*
X181372857Y-85230000D01*
X181468095Y-85325238D01*
X181515714Y-85420476D01*
X181563333Y-85610952D01*
X181563333Y-85753809D01*
X181515714Y-85944285D01*
X181468095Y-86039523D01*
X181372857Y-86134761D01*
X181230000Y-86182380D01*
X180991904Y-86182380D01*
X182420476Y-85515714D02*
X182420476Y-86182380D01*
X182182380Y-85134761D02*
X181944285Y-85849047D01*
X182563333Y-85849047D01*
%TO.C,J2*%
X182122380Y-66373333D02*
X182836666Y-66373333D01*
X182979523Y-66420952D01*
X183074761Y-66516190D01*
X183122380Y-66659047D01*
X183122380Y-66754285D01*
X182217619Y-65944761D02*
X182170000Y-65897142D01*
X182122380Y-65801904D01*
X182122380Y-65563809D01*
X182170000Y-65468571D01*
X182217619Y-65420952D01*
X182312857Y-65373333D01*
X182408095Y-65373333D01*
X182550952Y-65420952D01*
X183122380Y-65992380D01*
X183122380Y-65373333D01*
%TO.C,U3*%
X117628095Y-94222380D02*
X117628095Y-95031904D01*
X117675714Y-95127142D01*
X117723333Y-95174761D01*
X117818571Y-95222380D01*
X118009047Y-95222380D01*
X118104285Y-95174761D01*
X118151904Y-95127142D01*
X118199523Y-95031904D01*
X118199523Y-94222380D01*
X118580476Y-94222380D02*
X119199523Y-94222380D01*
X118866190Y-94603333D01*
X119009047Y-94603333D01*
X119104285Y-94650952D01*
X119151904Y-94698571D01*
X119199523Y-94793809D01*
X119199523Y-95031904D01*
X119151904Y-95127142D01*
X119104285Y-95174761D01*
X119009047Y-95222380D01*
X118723333Y-95222380D01*
X118628095Y-95174761D01*
X118580476Y-95127142D01*
%TO.C,R7*%
X161183333Y-113492380D02*
X160850000Y-113016190D01*
X160611904Y-113492380D02*
X160611904Y-112492380D01*
X160992857Y-112492380D01*
X161088095Y-112540000D01*
X161135714Y-112587619D01*
X161183333Y-112682857D01*
X161183333Y-112825714D01*
X161135714Y-112920952D01*
X161088095Y-112968571D01*
X160992857Y-113016190D01*
X160611904Y-113016190D01*
X161516666Y-112492380D02*
X162183333Y-112492380D01*
X161754761Y-113492380D01*
%TO.C,J6*%
X182122380Y-127333333D02*
X182836666Y-127333333D01*
X182979523Y-127380952D01*
X183074761Y-127476190D01*
X183122380Y-127619047D01*
X183122380Y-127714285D01*
X182122380Y-126428571D02*
X182122380Y-126619047D01*
X182170000Y-126714285D01*
X182217619Y-126761904D01*
X182360476Y-126857142D01*
X182550952Y-126904761D01*
X182931904Y-126904761D01*
X183027142Y-126857142D01*
X183074761Y-126809523D01*
X183122380Y-126714285D01*
X183122380Y-126523809D01*
X183074761Y-126428571D01*
X183027142Y-126380952D01*
X182931904Y-126333333D01*
X182693809Y-126333333D01*
X182598571Y-126380952D01*
X182550952Y-126428571D01*
X182503333Y-126523809D01*
X182503333Y-126714285D01*
X182550952Y-126809523D01*
X182598571Y-126857142D01*
X182693809Y-126904761D01*
%TO.C,R9*%
X141172380Y-110426666D02*
X140696190Y-110760000D01*
X141172380Y-110998095D02*
X140172380Y-110998095D01*
X140172380Y-110617142D01*
X140220000Y-110521904D01*
X140267619Y-110474285D01*
X140362857Y-110426666D01*
X140505714Y-110426666D01*
X140600952Y-110474285D01*
X140648571Y-110521904D01*
X140696190Y-110617142D01*
X140696190Y-110998095D01*
X141172380Y-109950476D02*
X141172380Y-109760000D01*
X141124761Y-109664761D01*
X141077142Y-109617142D01*
X140934285Y-109521904D01*
X140743809Y-109474285D01*
X140362857Y-109474285D01*
X140267619Y-109521904D01*
X140220000Y-109569523D01*
X140172380Y-109664761D01*
X140172380Y-109855238D01*
X140220000Y-109950476D01*
X140267619Y-109998095D01*
X140362857Y-110045714D01*
X140600952Y-110045714D01*
X140696190Y-109998095D01*
X140743809Y-109950476D01*
X140791428Y-109855238D01*
X140791428Y-109664761D01*
X140743809Y-109569523D01*
X140696190Y-109521904D01*
X140600952Y-109474285D01*
%TO.C,J5*%
X182562380Y-117173333D02*
X183276666Y-117173333D01*
X183419523Y-117220952D01*
X183514761Y-117316190D01*
X183562380Y-117459047D01*
X183562380Y-117554285D01*
X182562380Y-116220952D02*
X182562380Y-116697142D01*
X183038571Y-116744761D01*
X182990952Y-116697142D01*
X182943333Y-116601904D01*
X182943333Y-116363809D01*
X182990952Y-116268571D01*
X183038571Y-116220952D01*
X183133809Y-116173333D01*
X183371904Y-116173333D01*
X183467142Y-116220952D01*
X183514761Y-116268571D01*
X183562380Y-116363809D01*
X183562380Y-116601904D01*
X183514761Y-116697142D01*
X183467142Y-116744761D01*
%TO.C,R5*%
X60912380Y-205476666D02*
X60436190Y-205810000D01*
X60912380Y-206048095D02*
X59912380Y-206048095D01*
X59912380Y-205667142D01*
X59960000Y-205571904D01*
X60007619Y-205524285D01*
X60102857Y-205476666D01*
X60245714Y-205476666D01*
X60340952Y-205524285D01*
X60388571Y-205571904D01*
X60436190Y-205667142D01*
X60436190Y-206048095D01*
X59912380Y-204571904D02*
X59912380Y-205048095D01*
X60388571Y-205095714D01*
X60340952Y-205048095D01*
X60293333Y-204952857D01*
X60293333Y-204714761D01*
X60340952Y-204619523D01*
X60388571Y-204571904D01*
X60483809Y-204524285D01*
X60721904Y-204524285D01*
X60817142Y-204571904D01*
X60864761Y-204619523D01*
X60912380Y-204714761D01*
X60912380Y-204952857D01*
X60864761Y-205048095D01*
X60817142Y-205095714D01*
%TO.C,D2*%
X184992380Y-104928095D02*
X183992380Y-104928095D01*
X183992380Y-104690000D01*
X184040000Y-104547142D01*
X184135238Y-104451904D01*
X184230476Y-104404285D01*
X184420952Y-104356666D01*
X184563809Y-104356666D01*
X184754285Y-104404285D01*
X184849523Y-104451904D01*
X184944761Y-104547142D01*
X184992380Y-104690000D01*
X184992380Y-104928095D01*
X184087619Y-103975714D02*
X184040000Y-103928095D01*
X183992380Y-103832857D01*
X183992380Y-103594761D01*
X184040000Y-103499523D01*
X184087619Y-103451904D01*
X184182857Y-103404285D01*
X184278095Y-103404285D01*
X184420952Y-103451904D01*
X184992380Y-104023333D01*
X184992380Y-103404285D01*
%TO.C,R8*%
X104833333Y-111902380D02*
X104500000Y-111426190D01*
X104261904Y-111902380D02*
X104261904Y-110902380D01*
X104642857Y-110902380D01*
X104738095Y-110950000D01*
X104785714Y-110997619D01*
X104833333Y-111092857D01*
X104833333Y-111235714D01*
X104785714Y-111330952D01*
X104738095Y-111378571D01*
X104642857Y-111426190D01*
X104261904Y-111426190D01*
X105404761Y-111330952D02*
X105309523Y-111283333D01*
X105261904Y-111235714D01*
X105214285Y-111140476D01*
X105214285Y-111092857D01*
X105261904Y-110997619D01*
X105309523Y-110950000D01*
X105404761Y-110902380D01*
X105595238Y-110902380D01*
X105690476Y-110950000D01*
X105738095Y-110997619D01*
X105785714Y-111092857D01*
X105785714Y-111140476D01*
X105738095Y-111235714D01*
X105690476Y-111283333D01*
X105595238Y-111330952D01*
X105404761Y-111330952D01*
X105309523Y-111378571D01*
X105261904Y-111426190D01*
X105214285Y-111521428D01*
X105214285Y-111711904D01*
X105261904Y-111807142D01*
X105309523Y-111854761D01*
X105404761Y-111902380D01*
X105595238Y-111902380D01*
X105690476Y-111854761D01*
X105738095Y-111807142D01*
X105785714Y-111711904D01*
X105785714Y-111521428D01*
X105738095Y-111426190D01*
X105690476Y-111378571D01*
X105595238Y-111330952D01*
%TO.C,R6*%
X167902380Y-111246666D02*
X167426190Y-111580000D01*
X167902380Y-111818095D02*
X166902380Y-111818095D01*
X166902380Y-111437142D01*
X166950000Y-111341904D01*
X166997619Y-111294285D01*
X167092857Y-111246666D01*
X167235714Y-111246666D01*
X167330952Y-111294285D01*
X167378571Y-111341904D01*
X167426190Y-111437142D01*
X167426190Y-111818095D01*
X166902380Y-110389523D02*
X166902380Y-110580000D01*
X166950000Y-110675238D01*
X166997619Y-110722857D01*
X167140476Y-110818095D01*
X167330952Y-110865714D01*
X167711904Y-110865714D01*
X167807142Y-110818095D01*
X167854761Y-110770476D01*
X167902380Y-110675238D01*
X167902380Y-110484761D01*
X167854761Y-110389523D01*
X167807142Y-110341904D01*
X167711904Y-110294285D01*
X167473809Y-110294285D01*
X167378571Y-110341904D01*
X167330952Y-110389523D01*
X167283333Y-110484761D01*
X167283333Y-110675238D01*
X167330952Y-110770476D01*
X167378571Y-110818095D01*
X167473809Y-110865714D01*
%TO.C,U4*%
X91888095Y-108792380D02*
X91888095Y-109601904D01*
X91935714Y-109697142D01*
X91983333Y-109744761D01*
X92078571Y-109792380D01*
X92269047Y-109792380D01*
X92364285Y-109744761D01*
X92411904Y-109697142D01*
X92459523Y-109601904D01*
X92459523Y-108792380D01*
X93364285Y-109125714D02*
X93364285Y-109792380D01*
X93126190Y-108744761D02*
X92888095Y-109459047D01*
X93507142Y-109459047D01*
%TO.C,R3*%
X184912380Y-107886666D02*
X184436190Y-108220000D01*
X184912380Y-108458095D02*
X183912380Y-108458095D01*
X183912380Y-108077142D01*
X183960000Y-107981904D01*
X184007619Y-107934285D01*
X184102857Y-107886666D01*
X184245714Y-107886666D01*
X184340952Y-107934285D01*
X184388571Y-107981904D01*
X184436190Y-108077142D01*
X184436190Y-108458095D01*
X183912380Y-107553333D02*
X183912380Y-106934285D01*
X184293333Y-107267619D01*
X184293333Y-107124761D01*
X184340952Y-107029523D01*
X184388571Y-106981904D01*
X184483809Y-106934285D01*
X184721904Y-106934285D01*
X184817142Y-106981904D01*
X184864761Y-107029523D01*
X184912380Y-107124761D01*
X184912380Y-107410476D01*
X184864761Y-107505714D01*
X184817142Y-107553333D01*
%TO.C,JP1*%
X103190000Y-111060000D02*
X102690000Y-111560000D01*
X98590000Y-110260000D02*
X99090000Y-109760000D01*
X99090000Y-111560000D02*
X98590000Y-111060000D01*
X102690000Y-111560000D02*
X99090000Y-111560000D01*
X102690000Y-109760000D02*
X103190000Y-110260000D01*
X103190000Y-110260000D02*
X103190000Y-111060000D01*
X98590000Y-111060000D02*
X98590000Y-110260000D01*
X99090000Y-109760000D02*
X102690000Y-109760000D01*
D11*
%TO.C,J4*%
X86390000Y-105050000D02*
X89050000Y-105050000D01*
X86390000Y-82130000D02*
X89050000Y-82130000D01*
X86390000Y-79530000D02*
X87720000Y-79530000D01*
X86390000Y-82130000D02*
X86390000Y-105050000D01*
X89050000Y-82130000D02*
X89050000Y-105050000D01*
X86390000Y-80860000D02*
X86390000Y-79530000D01*
D10*
%TO.C,U1*%
X178625000Y-105355000D02*
X178625000Y-105555000D01*
X174475000Y-105355000D02*
X174475000Y-105555000D01*
X178625000Y-110305000D02*
X179925000Y-110305000D01*
X178625000Y-110505000D02*
X174475000Y-110505000D01*
X174475000Y-110505000D02*
X174475000Y-110305000D01*
X178625000Y-110505000D02*
X178625000Y-110305000D01*
X178625000Y-105355000D02*
X174475000Y-105355000D01*
D11*
%TO.C,R1*%
X174282742Y-102747500D02*
X174757258Y-102747500D01*
X174282742Y-103792500D02*
X174757258Y-103792500D01*
%TO.C,U7*%
X91250000Y-82590000D02*
X91250000Y-86190000D01*
X91261522Y-86228478D02*
G75*
G03*
X95700000Y-84390000I1838478J1838478D01*
G01*
X95700001Y-84390000D02*
G75*
G03*
X91261522Y-82551522I-2600001J0D01*
G01*
%TO.C,C2*%
X169325000Y-105301252D02*
X169325000Y-104778748D01*
X170795000Y-105301252D02*
X170795000Y-104778748D01*
%TO.C,U5*%
X144815000Y-101835000D02*
X142865000Y-101835000D01*
X144815000Y-101835000D02*
X146765000Y-101835000D01*
X144815000Y-106955000D02*
X148265000Y-106955000D01*
X144815000Y-106955000D02*
X142865000Y-106955000D01*
D10*
%TO.C,U8*%
X165645000Y-81245000D02*
X165645000Y-81895000D01*
X159895000Y-91895000D02*
X165645000Y-91895000D01*
X159895000Y-91895000D02*
X159895000Y-91245000D01*
X159895000Y-81245000D02*
X165645000Y-81245000D01*
X165645000Y-91895000D02*
X165645000Y-91245000D01*
X159895000Y-81820000D02*
X158295000Y-81820000D01*
X159895000Y-81245000D02*
X159895000Y-81820000D01*
D11*
%TO.C,D3*%
X180245000Y-82517500D02*
X182530000Y-82517500D01*
X180245000Y-81047500D02*
X180245000Y-82517500D01*
X182530000Y-81047500D02*
X180245000Y-81047500D01*
%TO.C,D1*%
X183815000Y-112597500D02*
X183815000Y-110312500D01*
X182345000Y-112597500D02*
X183815000Y-112597500D01*
X182345000Y-110312500D02*
X182345000Y-112597500D01*
%TO.C,J1*%
X179990000Y-100380000D02*
X178010000Y-100380000D01*
X178010000Y-100380000D02*
X178010000Y-99960000D01*
X178010000Y-92860000D02*
X178010000Y-93280000D01*
X179990000Y-92860000D02*
X178010000Y-92860000D01*
X181960000Y-92860000D02*
X182360000Y-92860000D01*
X182360000Y-100380000D02*
X181960000Y-100380000D01*
X177780000Y-98380000D02*
X177330000Y-98380000D01*
X177330000Y-97930000D02*
X177330000Y-98380000D01*
%TO.C,R4*%
X111012742Y-92752500D02*
X111487258Y-92752500D01*
X111012742Y-91707500D02*
X111487258Y-91707500D01*
%TO.C,R12*%
X173077258Y-86597500D02*
X172602742Y-86597500D01*
X173077258Y-87642500D02*
X172602742Y-87642500D01*
%TO.C,U2*%
X111210000Y-98870000D02*
X110410000Y-98870000D01*
X111210000Y-95750000D02*
X110410000Y-95750000D01*
X111210000Y-98870000D02*
X113010000Y-98870000D01*
X111210000Y-95750000D02*
X112010000Y-95750000D01*
%TO.C,J3*%
X181670000Y-77530000D02*
X180340000Y-77530000D01*
X179070000Y-74870000D02*
X97730000Y-74870000D01*
X179070000Y-74870000D02*
X179070000Y-77530000D01*
X97730000Y-74870000D02*
X97730000Y-77530000D01*
X181670000Y-76200000D02*
X181670000Y-77530000D01*
X179070000Y-77530000D02*
X97730000Y-77530000D01*
%TO.C,C1*%
X171205000Y-110548748D02*
X171205000Y-111071252D01*
X169735000Y-110548748D02*
X169735000Y-111071252D01*
%TO.C,R11*%
X173092258Y-81287500D02*
X172617742Y-81287500D01*
X173092258Y-82332500D02*
X172617742Y-82332500D01*
%TO.C,R2*%
X174372742Y-113732500D02*
X174847258Y-113732500D01*
X174372742Y-112687500D02*
X174847258Y-112687500D01*
%TO.C,C3*%
X104458748Y-100425000D02*
X104981252Y-100425000D01*
X104458748Y-101895000D02*
X104981252Y-101895000D01*
%TO.C,R10*%
X136717500Y-103142742D02*
X136717500Y-103617258D01*
X137762500Y-103142742D02*
X137762500Y-103617258D01*
%TO.C,D4*%
X180245000Y-87895000D02*
X182530000Y-87895000D01*
X180245000Y-86425000D02*
X180245000Y-87895000D01*
X182530000Y-86425000D02*
X180245000Y-86425000D01*
%TO.C,J2*%
X180340000Y-64710000D02*
X181670000Y-64710000D01*
X179070000Y-67370000D02*
X97730000Y-67370000D01*
X179070000Y-64710000D02*
X179070000Y-67370000D01*
X181670000Y-64710000D02*
X181670000Y-66040000D01*
X97730000Y-64710000D02*
X97730000Y-67370000D01*
X179070000Y-64710000D02*
X97730000Y-64710000D01*
%TO.C,U3*%
X118390000Y-95610000D02*
X114790000Y-95610000D01*
X118390000Y-95610000D02*
X120590000Y-95610000D01*
X118390000Y-98830000D02*
X120590000Y-98830000D01*
X118390000Y-98830000D02*
X116190000Y-98830000D01*
%TO.C,R7*%
X161587258Y-111087500D02*
X161112742Y-111087500D01*
X161587258Y-112132500D02*
X161112742Y-112132500D01*
%TO.C,J6*%
X180340000Y-125670000D02*
X181670000Y-125670000D01*
X179070000Y-125670000D02*
X179070000Y-128330000D01*
X97730000Y-125670000D02*
X97730000Y-128330000D01*
X181670000Y-125670000D02*
X181670000Y-127000000D01*
X179070000Y-128330000D02*
X97730000Y-128330000D01*
X179070000Y-125670000D02*
X97730000Y-125670000D01*
%TO.C,R9*%
X138767500Y-110022742D02*
X138767500Y-110497258D01*
X139812500Y-110022742D02*
X139812500Y-110497258D01*
%TO.C,J5*%
X179070000Y-115510000D02*
X179070000Y-118170000D01*
X181670000Y-118170000D02*
X180340000Y-118170000D01*
X97730000Y-115510000D02*
X97730000Y-118170000D01*
X179070000Y-115510000D02*
X97730000Y-115510000D01*
X181670000Y-116840000D02*
X181670000Y-118170000D01*
X179070000Y-118170000D02*
X97730000Y-118170000D01*
%TO.C,R5*%
X103257500Y-96692742D02*
X103257500Y-97167258D01*
X104302500Y-96692742D02*
X104302500Y-97167258D01*
%TO.C,D2*%
X182375000Y-102705000D02*
X182375000Y-104990000D01*
X183845000Y-102705000D02*
X182375000Y-102705000D01*
X183845000Y-104990000D02*
X183845000Y-102705000D01*
%TO.C,R8*%
X104762742Y-112357500D02*
X105237258Y-112357500D01*
X104762742Y-113402500D02*
X105237258Y-113402500D01*
%TO.C,R6*%
X165852500Y-110562742D02*
X165852500Y-111037258D01*
X164807500Y-110562742D02*
X164807500Y-111037258D01*
%TO.C,U4*%
X92650000Y-110180000D02*
X90975000Y-110180000D01*
X92650000Y-113300000D02*
X93300000Y-113300000D01*
X92650000Y-113300000D02*
X92000000Y-113300000D01*
X92650000Y-110180000D02*
X93300000Y-110180000D01*
%TO.C,R3*%
X183552500Y-107482742D02*
X183552500Y-107957258D01*
X182507500Y-107482742D02*
X182507500Y-107957258D01*
%TD*%
M02*
