M48
; DRILL file {KiCad 6.0.4-6f826c9f35~116~ubuntu21.10.1} date Fri 08 Apr 2022 15:22:27
; FORMAT={-:-/ absolute / inch / decimal}
; #@! TF.CreationDate,2022-04-08T15:22:27+02:00
; #@! TF.GenerationSoftware,Kicad,Pcbnew,6.0.4-6f826c9f35~116~ubuntu21.10.1
; #@! TF.FileFunction,Plated,1,2,PTH
FMAT,2
INCH
; #@! TA.AperFunction,Plated,PTH,ViaDrill
T1C0.0157
; #@! TA.AperFunction,Plated,PTH,ComponentDrill
T2C0.0197
; #@! TA.AperFunction,Plated,PTH,ComponentDrill
T3C0.0217
; #@! TA.AperFunction,Plated,PTH,ComponentDrill
T4C0.0295
; #@! TA.AperFunction,Plated,PTH,ComponentDrill
T5C0.0315
; #@! TA.AperFunction,Plated,PTH,ComponentDrill
T6C0.0394
%
G90
G05
T1
X3.6489Y-4.3234
X3.9873Y-3.5068
X4.7882Y-3.989
X4.813Y-3.7285
X4.813Y-3.802
X4.9457Y-3.7469
X5.2912Y-3.9862
X5.3951Y-4.1617
X5.4482Y-4.1971
X6.1544Y-3.3722
X6.3518Y-3.3118
X6.9035Y-3.1933
X7.0143Y-4.3572
X7.3217Y-3.3992
T4
X3.7063Y-3.6925
X3.7063Y-3.7425
X3.7063Y-3.7925
T5
X3.5298Y-2.6586
X3.5298Y-2.7586
X3.5298Y-2.8586
X3.5298Y-2.9586
X6.3807Y-3.1787
X6.4807Y-3.1787
T6
X3.4657Y-3.3463
X3.4657Y-3.4463
X3.4657Y-3.5463
X3.4657Y-3.6463
X3.4657Y-3.7463
X3.4657Y-3.8463
X3.4657Y-3.9463
X3.4657Y-4.0463
X3.4657Y-4.1463
X3.4657Y-4.2463
X3.9Y-2.6
X3.9Y-3.0
X3.9Y-4.6
X3.9Y-5.0
X4.0Y-2.6
X4.0Y-3.0
X4.0Y-4.6
X4.0Y-5.0
X4.0264Y-3.8122
X4.1Y-2.6
X4.1Y-3.0
X4.1Y-4.6
X4.1Y-5.0
X4.2Y-2.6
X4.2Y-3.0
X4.2Y-4.6
X4.2Y-5.0
X4.3Y-2.6
X4.3Y-3.0
X4.3Y-4.6
X4.3Y-5.0
X4.4Y-2.6
X4.4Y-3.0
X4.4Y-4.6
X4.4Y-5.0
X4.5Y-2.6
X4.5Y-3.0
X4.5Y-4.6
X4.5Y-5.0
X4.5677Y-4.4346
X4.6Y-2.6
X4.6Y-3.0
X4.6Y-4.6
X4.6Y-5.0
X4.6677Y-4.4346
X4.7Y-2.6
X4.7Y-3.0
X4.7Y-4.6
X4.7Y-5.0
X4.7677Y-4.4346
X4.7789Y-3.2
X4.8Y-2.6
X4.8Y-3.0
X4.8Y-4.6
X4.8Y-5.0
X4.8789Y-3.2
X4.9Y-2.6
X4.9Y-3.0
X4.9Y-4.6
X4.9Y-5.0
X4.9789Y-3.2
X5.0Y-2.6
X5.0Y-3.0
X5.0Y-4.6
X5.0Y-5.0
X5.1Y-2.6
X5.1Y-3.0
X5.1Y-4.6
X5.1Y-5.0
X5.2Y-2.6
X5.2Y-3.0
X5.2Y-4.6
X5.2Y-5.0
X5.2577Y-3.2031
X5.3Y-2.6
X5.3Y-3.0
X5.3Y-4.6
X5.3Y-5.0
X5.3577Y-3.2031
X5.4Y-2.6
X5.4Y-3.0
X5.4Y-4.6
X5.4Y-5.0
X5.4577Y-3.2031
X5.5Y-2.6
X5.5Y-3.0
X5.5Y-4.6
X5.5Y-5.0
X5.6Y-2.6
X5.6Y-3.0
X5.6Y-4.6
X5.6Y-5.0
X5.7Y-2.6
X5.7Y-3.0
X5.7Y-4.6
X5.7Y-5.0
X5.774Y-3.215
X5.8Y-2.6
X5.8Y-3.0
X5.8Y-4.6
X5.8Y-5.0
X5.874Y-3.215
X5.9Y-2.6
X5.9Y-3.0
X5.9Y-4.6
X5.9Y-5.0
X5.974Y-3.215
X6.0Y-2.6
X6.0Y-3.0
X6.0Y-4.6
X6.0Y-5.0
X6.1Y-2.6
X6.1Y-3.0
X6.1Y-4.6
X6.1Y-5.0
X6.2Y-2.6
X6.2Y-3.0
X6.2Y-4.6
X6.2Y-5.0
X6.3Y-2.6
X6.3Y-3.0
X6.3Y-4.6
X6.3Y-5.0
X6.4Y-2.6
X6.4Y-3.0
X6.4Y-4.6
X6.4Y-5.0
X6.5Y-2.6
X6.5Y-3.0
X6.5Y-4.6
X6.5Y-5.0
X6.6Y-2.6
X6.6Y-3.0
X6.6Y-4.6
X6.6Y-5.0
X6.7Y-2.6
X6.7Y-3.0
X6.7Y-4.6
X6.7Y-5.0
X6.8Y-2.6
X6.8Y-3.0
X6.8Y-4.6
X6.8Y-5.0
X6.8453Y-3.8122
X6.9Y-2.6
X6.9Y-3.0
X6.9Y-4.6
X6.9Y-5.0
X7.0Y-2.6
X7.0Y-3.0
X7.0Y-4.6
X7.0Y-5.0
X7.1Y-2.6
X7.1Y-3.0
X7.1Y-4.6
X7.1Y-5.0
T2
G00X7.3691Y-3.6866
M15
G01X7.3947Y-3.6866
M16
G05
G00X7.3691Y-3.9622
M15
G01X7.3947Y-3.9622
M16
G05
T3
G00X7.2756Y-3.7319
M15
G01X7.2756Y-3.7201
M16
G05
G00X7.2756Y-3.9287
M15
G01X7.2756Y-3.9169
M16
G05
T0
M30
