%TF.GenerationSoftware,KiCad,Pcbnew,6.0.4-6f826c9f35~116~ubuntu21.10.1*%
%TF.CreationDate,2022-04-08T15:22:27+02:00*%
%TF.ProjectId,main,6d61696e-2e6b-4696-9361-645f70636258,rev?*%
%TF.SameCoordinates,Original*%
%TF.FileFunction,Legend,Top*%
%TF.FilePolarity,Positive*%
%FSLAX46Y46*%
G04 Gerber Fmt 4.6, Leading zero omitted, Abs format (unit mm)*
G04 Created by KiCad (PCBNEW 6.0.4-6f826c9f35~116~ubuntu21.10.1) date 2022-04-08 15:22:27*
%MOMM*%
%LPD*%
G01*
G04 APERTURE LIST*
%ADD10C,0.150000*%
%ADD11C,0.120000*%
%ADD12C,0.127000*%
%ADD13C,0.200000*%
G04 APERTURE END LIST*
D10*
%TO.C,R9*%
X184573333Y-72972380D02*
X184240000Y-72496190D01*
X184001904Y-72972380D02*
X184001904Y-71972380D01*
X184382857Y-71972380D01*
X184478095Y-72020000D01*
X184525714Y-72067619D01*
X184573333Y-72162857D01*
X184573333Y-72305714D01*
X184525714Y-72400952D01*
X184478095Y-72448571D01*
X184382857Y-72496190D01*
X184001904Y-72496190D01*
X185049523Y-72972380D02*
X185240000Y-72972380D01*
X185335238Y-72924761D01*
X185382857Y-72877142D01*
X185478095Y-72734285D01*
X185525714Y-72543809D01*
X185525714Y-72162857D01*
X185478095Y-72067619D01*
X185430476Y-72020000D01*
X185335238Y-71972380D01*
X185144761Y-71972380D01*
X185049523Y-72020000D01*
X185001904Y-72067619D01*
X184954285Y-72162857D01*
X184954285Y-72400952D01*
X185001904Y-72496190D01*
X185049523Y-72543809D01*
X185144761Y-72591428D01*
X185335238Y-72591428D01*
X185430476Y-72543809D01*
X185478095Y-72496190D01*
X185525714Y-72400952D01*
%TO.C,C7*%
X146877142Y-87996666D02*
X146924761Y-88044285D01*
X146972380Y-88187142D01*
X146972380Y-88282380D01*
X146924761Y-88425238D01*
X146829523Y-88520476D01*
X146734285Y-88568095D01*
X146543809Y-88615714D01*
X146400952Y-88615714D01*
X146210476Y-88568095D01*
X146115238Y-88520476D01*
X146020000Y-88425238D01*
X145972380Y-88282380D01*
X145972380Y-88187142D01*
X146020000Y-88044285D01*
X146067619Y-87996666D01*
X145972380Y-87663333D02*
X145972380Y-86996666D01*
X146972380Y-87425238D01*
%TO.C,C6*%
X121727142Y-99066666D02*
X121774761Y-99114285D01*
X121822380Y-99257142D01*
X121822380Y-99352380D01*
X121774761Y-99495238D01*
X121679523Y-99590476D01*
X121584285Y-99638095D01*
X121393809Y-99685714D01*
X121250952Y-99685714D01*
X121060476Y-99638095D01*
X120965238Y-99590476D01*
X120870000Y-99495238D01*
X120822380Y-99352380D01*
X120822380Y-99257142D01*
X120870000Y-99114285D01*
X120917619Y-99066666D01*
X120822380Y-98209523D02*
X120822380Y-98400000D01*
X120870000Y-98495238D01*
X120917619Y-98542857D01*
X121060476Y-98638095D01*
X121250952Y-98685714D01*
X121631904Y-98685714D01*
X121727142Y-98638095D01*
X121774761Y-98590476D01*
X121822380Y-98495238D01*
X121822380Y-98304761D01*
X121774761Y-98209523D01*
X121727142Y-98161904D01*
X121631904Y-98114285D01*
X121393809Y-98114285D01*
X121298571Y-98161904D01*
X121250952Y-98209523D01*
X121203333Y-98304761D01*
X121203333Y-98495238D01*
X121250952Y-98590476D01*
X121298571Y-98638095D01*
X121393809Y-98685714D01*
%TO.C,D3*%
X184272380Y-69518095D02*
X183272380Y-69518095D01*
X183272380Y-69280000D01*
X183320000Y-69137142D01*
X183415238Y-69041904D01*
X183510476Y-68994285D01*
X183700952Y-68946666D01*
X183843809Y-68946666D01*
X184034285Y-68994285D01*
X184129523Y-69041904D01*
X184224761Y-69137142D01*
X184272380Y-69280000D01*
X184272380Y-69518095D01*
X183272380Y-68613333D02*
X183272380Y-67994285D01*
X183653333Y-68327619D01*
X183653333Y-68184761D01*
X183700952Y-68089523D01*
X183748571Y-68041904D01*
X183843809Y-67994285D01*
X184081904Y-67994285D01*
X184177142Y-68041904D01*
X184224761Y-68089523D01*
X184272380Y-68184761D01*
X184272380Y-68470476D01*
X184224761Y-68565714D01*
X184177142Y-68613333D01*
%TO.C,J1*%
X182152380Y-97473333D02*
X182866666Y-97473333D01*
X183009523Y-97520952D01*
X183104761Y-97616190D01*
X183152380Y-97759047D01*
X183152380Y-97854285D01*
X183152380Y-96473333D02*
X183152380Y-97044761D01*
X183152380Y-96759047D02*
X182152380Y-96759047D01*
X182295238Y-96854285D01*
X182390476Y-96949523D01*
X182438095Y-97044761D01*
%TO.C,U3*%
X117888095Y-91422380D02*
X117888095Y-92231904D01*
X117935714Y-92327142D01*
X117983333Y-92374761D01*
X118078571Y-92422380D01*
X118269047Y-92422380D01*
X118364285Y-92374761D01*
X118411904Y-92327142D01*
X118459523Y-92231904D01*
X118459523Y-91422380D01*
X118840476Y-91422380D02*
X119459523Y-91422380D01*
X119126190Y-91803333D01*
X119269047Y-91803333D01*
X119364285Y-91850952D01*
X119411904Y-91898571D01*
X119459523Y-91993809D01*
X119459523Y-92231904D01*
X119411904Y-92327142D01*
X119364285Y-92374761D01*
X119269047Y-92422380D01*
X118983333Y-92422380D01*
X118888095Y-92374761D01*
X118840476Y-92327142D01*
%TO.C,C2*%
X150417142Y-91586666D02*
X150464761Y-91634285D01*
X150512380Y-91777142D01*
X150512380Y-91872380D01*
X150464761Y-92015238D01*
X150369523Y-92110476D01*
X150274285Y-92158095D01*
X150083809Y-92205714D01*
X149940952Y-92205714D01*
X149750476Y-92158095D01*
X149655238Y-92110476D01*
X149560000Y-92015238D01*
X149512380Y-91872380D01*
X149512380Y-91777142D01*
X149560000Y-91634285D01*
X149607619Y-91586666D01*
X149607619Y-91205714D02*
X149560000Y-91158095D01*
X149512380Y-91062857D01*
X149512380Y-90824761D01*
X149560000Y-90729523D01*
X149607619Y-90681904D01*
X149702857Y-90634285D01*
X149798095Y-90634285D01*
X149940952Y-90681904D01*
X150512380Y-91253333D01*
X150512380Y-90634285D01*
%TO.C,U8*%
X180058095Y-77912380D02*
X180058095Y-78721904D01*
X180105714Y-78817142D01*
X180153333Y-78864761D01*
X180248571Y-78912380D01*
X180439047Y-78912380D01*
X180534285Y-78864761D01*
X180581904Y-78817142D01*
X180629523Y-78721904D01*
X180629523Y-77912380D01*
X181248571Y-78340952D02*
X181153333Y-78293333D01*
X181105714Y-78245714D01*
X181058095Y-78150476D01*
X181058095Y-78102857D01*
X181105714Y-78007619D01*
X181153333Y-77960000D01*
X181248571Y-77912380D01*
X181439047Y-77912380D01*
X181534285Y-77960000D01*
X181581904Y-78007619D01*
X181629523Y-78102857D01*
X181629523Y-78150476D01*
X181581904Y-78245714D01*
X181534285Y-78293333D01*
X181439047Y-78340952D01*
X181248571Y-78340952D01*
X181153333Y-78388571D01*
X181105714Y-78436190D01*
X181058095Y-78531428D01*
X181058095Y-78721904D01*
X181105714Y-78817142D01*
X181153333Y-78864761D01*
X181248571Y-78912380D01*
X181439047Y-78912380D01*
X181534285Y-78864761D01*
X181581904Y-78817142D01*
X181629523Y-78721904D01*
X181629523Y-78531428D01*
X181581904Y-78436190D01*
X181534285Y-78388571D01*
X181439047Y-78340952D01*
%TO.C,VR1*%
X140235476Y-96636380D02*
X140568809Y-97636380D01*
X140902142Y-96636380D01*
X141806904Y-97636380D02*
X141473571Y-97160190D01*
X141235476Y-97636380D02*
X141235476Y-96636380D01*
X141616428Y-96636380D01*
X141711666Y-96684000D01*
X141759285Y-96731619D01*
X141806904Y-96826857D01*
X141806904Y-96969714D01*
X141759285Y-97064952D01*
X141711666Y-97112571D01*
X141616428Y-97160190D01*
X141235476Y-97160190D01*
X142759285Y-97636380D02*
X142187857Y-97636380D01*
X142473571Y-97636380D02*
X142473571Y-96636380D01*
X142378333Y-96779238D01*
X142283095Y-96874476D01*
X142187857Y-96922095D01*
%TO.C,R3*%
X171495833Y-106502380D02*
X171162500Y-106026190D01*
X170924404Y-106502380D02*
X170924404Y-105502380D01*
X171305357Y-105502380D01*
X171400595Y-105550000D01*
X171448214Y-105597619D01*
X171495833Y-105692857D01*
X171495833Y-105835714D01*
X171448214Y-105930952D01*
X171400595Y-105978571D01*
X171305357Y-106026190D01*
X170924404Y-106026190D01*
X171829166Y-105502380D02*
X172448214Y-105502380D01*
X172114880Y-105883333D01*
X172257738Y-105883333D01*
X172352976Y-105930952D01*
X172400595Y-105978571D01*
X172448214Y-106073809D01*
X172448214Y-106311904D01*
X172400595Y-106407142D01*
X172352976Y-106454761D01*
X172257738Y-106502380D01*
X171972023Y-106502380D01*
X171876785Y-106454761D01*
X171829166Y-106407142D01*
%TO.C,C1*%
X175753333Y-111947142D02*
X175705714Y-111994761D01*
X175562857Y-112042380D01*
X175467619Y-112042380D01*
X175324761Y-111994761D01*
X175229523Y-111899523D01*
X175181904Y-111804285D01*
X175134285Y-111613809D01*
X175134285Y-111470952D01*
X175181904Y-111280476D01*
X175229523Y-111185238D01*
X175324761Y-111090000D01*
X175467619Y-111042380D01*
X175562857Y-111042380D01*
X175705714Y-111090000D01*
X175753333Y-111137619D01*
X176705714Y-112042380D02*
X176134285Y-112042380D01*
X176420000Y-112042380D02*
X176420000Y-111042380D01*
X176324761Y-111185238D01*
X176229523Y-111280476D01*
X176134285Y-111328095D01*
%TO.C,J3*%
X182562380Y-76533333D02*
X183276666Y-76533333D01*
X183419523Y-76580952D01*
X183514761Y-76676190D01*
X183562380Y-76819047D01*
X183562380Y-76914285D01*
X182562380Y-76152380D02*
X182562380Y-75533333D01*
X182943333Y-75866666D01*
X182943333Y-75723809D01*
X182990952Y-75628571D01*
X183038571Y-75580952D01*
X183133809Y-75533333D01*
X183371904Y-75533333D01*
X183467142Y-75580952D01*
X183514761Y-75628571D01*
X183562380Y-75723809D01*
X183562380Y-76009523D01*
X183514761Y-76104761D01*
X183467142Y-76152380D01*
%TO.C,R1*%
X183095833Y-110742380D02*
X182762500Y-110266190D01*
X182524404Y-110742380D02*
X182524404Y-109742380D01*
X182905357Y-109742380D01*
X183000595Y-109790000D01*
X183048214Y-109837619D01*
X183095833Y-109932857D01*
X183095833Y-110075714D01*
X183048214Y-110170952D01*
X183000595Y-110218571D01*
X182905357Y-110266190D01*
X182524404Y-110266190D01*
X184048214Y-110742380D02*
X183476785Y-110742380D01*
X183762500Y-110742380D02*
X183762500Y-109742380D01*
X183667261Y-109885238D01*
X183572023Y-109980476D01*
X183476785Y-110028095D01*
%TO.C,C3*%
X146827142Y-91776666D02*
X146874761Y-91824285D01*
X146922380Y-91967142D01*
X146922380Y-92062380D01*
X146874761Y-92205238D01*
X146779523Y-92300476D01*
X146684285Y-92348095D01*
X146493809Y-92395714D01*
X146350952Y-92395714D01*
X146160476Y-92348095D01*
X146065238Y-92300476D01*
X145970000Y-92205238D01*
X145922380Y-92062380D01*
X145922380Y-91967142D01*
X145970000Y-91824285D01*
X146017619Y-91776666D01*
X145922380Y-91443333D02*
X145922380Y-90824285D01*
X146303333Y-91157619D01*
X146303333Y-91014761D01*
X146350952Y-90919523D01*
X146398571Y-90871904D01*
X146493809Y-90824285D01*
X146731904Y-90824285D01*
X146827142Y-90871904D01*
X146874761Y-90919523D01*
X146922380Y-91014761D01*
X146922380Y-91300476D01*
X146874761Y-91395714D01*
X146827142Y-91443333D01*
%TO.C,C8*%
X166467142Y-87826666D02*
X166514761Y-87874285D01*
X166562380Y-88017142D01*
X166562380Y-88112380D01*
X166514761Y-88255238D01*
X166419523Y-88350476D01*
X166324285Y-88398095D01*
X166133809Y-88445714D01*
X165990952Y-88445714D01*
X165800476Y-88398095D01*
X165705238Y-88350476D01*
X165610000Y-88255238D01*
X165562380Y-88112380D01*
X165562380Y-88017142D01*
X165610000Y-87874285D01*
X165657619Y-87826666D01*
X165990952Y-87255238D02*
X165943333Y-87350476D01*
X165895714Y-87398095D01*
X165800476Y-87445714D01*
X165752857Y-87445714D01*
X165657619Y-87398095D01*
X165610000Y-87350476D01*
X165562380Y-87255238D01*
X165562380Y-87064761D01*
X165610000Y-86969523D01*
X165657619Y-86921904D01*
X165752857Y-86874285D01*
X165800476Y-86874285D01*
X165895714Y-86921904D01*
X165943333Y-86969523D01*
X165990952Y-87064761D01*
X165990952Y-87255238D01*
X166038571Y-87350476D01*
X166086190Y-87398095D01*
X166181428Y-87445714D01*
X166371904Y-87445714D01*
X166467142Y-87398095D01*
X166514761Y-87350476D01*
X166562380Y-87255238D01*
X166562380Y-87064761D01*
X166514761Y-86969523D01*
X166467142Y-86921904D01*
X166371904Y-86874285D01*
X166181428Y-86874285D01*
X166086190Y-86921904D01*
X166038571Y-86969523D01*
X165990952Y-87064761D01*
%TO.C,J2*%
X182122380Y-66373333D02*
X182836666Y-66373333D01*
X182979523Y-66420952D01*
X183074761Y-66516190D01*
X183122380Y-66659047D01*
X183122380Y-66754285D01*
X182217619Y-65944761D02*
X182170000Y-65897142D01*
X182122380Y-65801904D01*
X182122380Y-65563809D01*
X182170000Y-65468571D01*
X182217619Y-65420952D01*
X182312857Y-65373333D01*
X182408095Y-65373333D01*
X182550952Y-65420952D01*
X183122380Y-65992380D01*
X183122380Y-65373333D01*
%TO.C,R2*%
X182915833Y-106462380D02*
X182582500Y-105986190D01*
X182344404Y-106462380D02*
X182344404Y-105462380D01*
X182725357Y-105462380D01*
X182820595Y-105510000D01*
X182868214Y-105557619D01*
X182915833Y-105652857D01*
X182915833Y-105795714D01*
X182868214Y-105890952D01*
X182820595Y-105938571D01*
X182725357Y-105986190D01*
X182344404Y-105986190D01*
X183296785Y-105557619D02*
X183344404Y-105510000D01*
X183439642Y-105462380D01*
X183677738Y-105462380D01*
X183772976Y-105510000D01*
X183820595Y-105557619D01*
X183868214Y-105652857D01*
X183868214Y-105748095D01*
X183820595Y-105890952D01*
X183249166Y-106462380D01*
X183868214Y-106462380D01*
%TO.C,D2*%
X185951904Y-110992380D02*
X185951904Y-109992380D01*
X186190000Y-109992380D01*
X186332857Y-110040000D01*
X186428095Y-110135238D01*
X186475714Y-110230476D01*
X186523333Y-110420952D01*
X186523333Y-110563809D01*
X186475714Y-110754285D01*
X186428095Y-110849523D01*
X186332857Y-110944761D01*
X186190000Y-110992380D01*
X185951904Y-110992380D01*
X186904285Y-110087619D02*
X186951904Y-110040000D01*
X187047142Y-109992380D01*
X187285238Y-109992380D01*
X187380476Y-110040000D01*
X187428095Y-110087619D01*
X187475714Y-110182857D01*
X187475714Y-110278095D01*
X187428095Y-110420952D01*
X186856666Y-110992380D01*
X187475714Y-110992380D01*
%TO.C,R4*%
X113763333Y-98832380D02*
X113430000Y-98356190D01*
X113191904Y-98832380D02*
X113191904Y-97832380D01*
X113572857Y-97832380D01*
X113668095Y-97880000D01*
X113715714Y-97927619D01*
X113763333Y-98022857D01*
X113763333Y-98165714D01*
X113715714Y-98260952D01*
X113668095Y-98308571D01*
X113572857Y-98356190D01*
X113191904Y-98356190D01*
X114620476Y-98165714D02*
X114620476Y-98832380D01*
X114382380Y-97784761D02*
X114144285Y-98499047D01*
X114763333Y-98499047D01*
%TO.C,C9*%
X163237142Y-87846666D02*
X163284761Y-87894285D01*
X163332380Y-88037142D01*
X163332380Y-88132380D01*
X163284761Y-88275238D01*
X163189523Y-88370476D01*
X163094285Y-88418095D01*
X162903809Y-88465714D01*
X162760952Y-88465714D01*
X162570476Y-88418095D01*
X162475238Y-88370476D01*
X162380000Y-88275238D01*
X162332380Y-88132380D01*
X162332380Y-88037142D01*
X162380000Y-87894285D01*
X162427619Y-87846666D01*
X163332380Y-87370476D02*
X163332380Y-87180000D01*
X163284761Y-87084761D01*
X163237142Y-87037142D01*
X163094285Y-86941904D01*
X162903809Y-86894285D01*
X162522857Y-86894285D01*
X162427619Y-86941904D01*
X162380000Y-86989523D01*
X162332380Y-87084761D01*
X162332380Y-87275238D01*
X162380000Y-87370476D01*
X162427619Y-87418095D01*
X162522857Y-87465714D01*
X162760952Y-87465714D01*
X162856190Y-87418095D01*
X162903809Y-87370476D01*
X162951428Y-87275238D01*
X162951428Y-87084761D01*
X162903809Y-86989523D01*
X162856190Y-86941904D01*
X162760952Y-86894285D01*
%TO.C,R8*%
X135078333Y-104662380D02*
X134745000Y-104186190D01*
X134506904Y-104662380D02*
X134506904Y-103662380D01*
X134887857Y-103662380D01*
X134983095Y-103710000D01*
X135030714Y-103757619D01*
X135078333Y-103852857D01*
X135078333Y-103995714D01*
X135030714Y-104090952D01*
X134983095Y-104138571D01*
X134887857Y-104186190D01*
X134506904Y-104186190D01*
X135649761Y-104090952D02*
X135554523Y-104043333D01*
X135506904Y-103995714D01*
X135459285Y-103900476D01*
X135459285Y-103852857D01*
X135506904Y-103757619D01*
X135554523Y-103710000D01*
X135649761Y-103662380D01*
X135840238Y-103662380D01*
X135935476Y-103710000D01*
X135983095Y-103757619D01*
X136030714Y-103852857D01*
X136030714Y-103900476D01*
X135983095Y-103995714D01*
X135935476Y-104043333D01*
X135840238Y-104090952D01*
X135649761Y-104090952D01*
X135554523Y-104138571D01*
X135506904Y-104186190D01*
X135459285Y-104281428D01*
X135459285Y-104471904D01*
X135506904Y-104567142D01*
X135554523Y-104614761D01*
X135649761Y-104662380D01*
X135840238Y-104662380D01*
X135935476Y-104614761D01*
X135983095Y-104567142D01*
X136030714Y-104471904D01*
X136030714Y-104281428D01*
X135983095Y-104186190D01*
X135935476Y-104138571D01*
X135840238Y-104090952D01*
%TO.C,R5*%
X135123333Y-101602380D02*
X134790000Y-101126190D01*
X134551904Y-101602380D02*
X134551904Y-100602380D01*
X134932857Y-100602380D01*
X135028095Y-100650000D01*
X135075714Y-100697619D01*
X135123333Y-100792857D01*
X135123333Y-100935714D01*
X135075714Y-101030952D01*
X135028095Y-101078571D01*
X134932857Y-101126190D01*
X134551904Y-101126190D01*
X136028095Y-100602380D02*
X135551904Y-100602380D01*
X135504285Y-101078571D01*
X135551904Y-101030952D01*
X135647142Y-100983333D01*
X135885238Y-100983333D01*
X135980476Y-101030952D01*
X136028095Y-101078571D01*
X136075714Y-101173809D01*
X136075714Y-101411904D01*
X136028095Y-101507142D01*
X135980476Y-101554761D01*
X135885238Y-101602380D01*
X135647142Y-101602380D01*
X135551904Y-101554761D01*
X135504285Y-101507142D01*
%TO.C,U2*%
X117338095Y-96852380D02*
X117338095Y-97661904D01*
X117385714Y-97757142D01*
X117433333Y-97804761D01*
X117528571Y-97852380D01*
X117719047Y-97852380D01*
X117814285Y-97804761D01*
X117861904Y-97757142D01*
X117909523Y-97661904D01*
X117909523Y-96852380D01*
X118338095Y-96947619D02*
X118385714Y-96900000D01*
X118480952Y-96852380D01*
X118719047Y-96852380D01*
X118814285Y-96900000D01*
X118861904Y-96947619D01*
X118909523Y-97042857D01*
X118909523Y-97138095D01*
X118861904Y-97280952D01*
X118290476Y-97852380D01*
X118909523Y-97852380D01*
%TO.C,R7*%
X135003333Y-107362380D02*
X134670000Y-106886190D01*
X134431904Y-107362380D02*
X134431904Y-106362380D01*
X134812857Y-106362380D01*
X134908095Y-106410000D01*
X134955714Y-106457619D01*
X135003333Y-106552857D01*
X135003333Y-106695714D01*
X134955714Y-106790952D01*
X134908095Y-106838571D01*
X134812857Y-106886190D01*
X134431904Y-106886190D01*
X135336666Y-106362380D02*
X136003333Y-106362380D01*
X135574761Y-107362380D01*
%TO.C,D1*%
X185964404Y-106432380D02*
X185964404Y-105432380D01*
X186202500Y-105432380D01*
X186345357Y-105480000D01*
X186440595Y-105575238D01*
X186488214Y-105670476D01*
X186535833Y-105860952D01*
X186535833Y-106003809D01*
X186488214Y-106194285D01*
X186440595Y-106289523D01*
X186345357Y-106384761D01*
X186202500Y-106432380D01*
X185964404Y-106432380D01*
X187488214Y-106432380D02*
X186916785Y-106432380D01*
X187202500Y-106432380D02*
X187202500Y-105432380D01*
X187107261Y-105575238D01*
X187012023Y-105670476D01*
X186916785Y-105718095D01*
%TO.C,J6*%
X182122380Y-127333333D02*
X182836666Y-127333333D01*
X182979523Y-127380952D01*
X183074761Y-127476190D01*
X183122380Y-127619047D01*
X183122380Y-127714285D01*
X182122380Y-126428571D02*
X182122380Y-126619047D01*
X182170000Y-126714285D01*
X182217619Y-126761904D01*
X182360476Y-126857142D01*
X182550952Y-126904761D01*
X182931904Y-126904761D01*
X183027142Y-126857142D01*
X183074761Y-126809523D01*
X183122380Y-126714285D01*
X183122380Y-126523809D01*
X183074761Y-126428571D01*
X183027142Y-126380952D01*
X182931904Y-126333333D01*
X182693809Y-126333333D01*
X182598571Y-126380952D01*
X182550952Y-126428571D01*
X182503333Y-126523809D01*
X182503333Y-126714285D01*
X182550952Y-126809523D01*
X182598571Y-126857142D01*
X182693809Y-126904761D01*
%TO.C,U4*%
X94398095Y-109422380D02*
X94398095Y-110231904D01*
X94445714Y-110327142D01*
X94493333Y-110374761D01*
X94588571Y-110422380D01*
X94779047Y-110422380D01*
X94874285Y-110374761D01*
X94921904Y-110327142D01*
X94969523Y-110231904D01*
X94969523Y-109422380D01*
X95874285Y-109755714D02*
X95874285Y-110422380D01*
X95636190Y-109374761D02*
X95398095Y-110089047D01*
X96017142Y-110089047D01*
%TO.C,R6*%
X107542380Y-112806666D02*
X107066190Y-113140000D01*
X107542380Y-113378095D02*
X106542380Y-113378095D01*
X106542380Y-112997142D01*
X106590000Y-112901904D01*
X106637619Y-112854285D01*
X106732857Y-112806666D01*
X106875714Y-112806666D01*
X106970952Y-112854285D01*
X107018571Y-112901904D01*
X107066190Y-112997142D01*
X107066190Y-113378095D01*
X106542380Y-111949523D02*
X106542380Y-112140000D01*
X106590000Y-112235238D01*
X106637619Y-112282857D01*
X106780476Y-112378095D01*
X106970952Y-112425714D01*
X107351904Y-112425714D01*
X107447142Y-112378095D01*
X107494761Y-112330476D01*
X107542380Y-112235238D01*
X107542380Y-112044761D01*
X107494761Y-111949523D01*
X107447142Y-111901904D01*
X107351904Y-111854285D01*
X107113809Y-111854285D01*
X107018571Y-111901904D01*
X106970952Y-111949523D01*
X106923333Y-112044761D01*
X106923333Y-112235238D01*
X106970952Y-112330476D01*
X107018571Y-112378095D01*
X107113809Y-112425714D01*
%TO.C,J5*%
X182562380Y-117173333D02*
X183276666Y-117173333D01*
X183419523Y-117220952D01*
X183514761Y-117316190D01*
X183562380Y-117459047D01*
X183562380Y-117554285D01*
X182562380Y-116220952D02*
X182562380Y-116697142D01*
X183038571Y-116744761D01*
X182990952Y-116697142D01*
X182943333Y-116601904D01*
X182943333Y-116363809D01*
X182990952Y-116268571D01*
X183038571Y-116220952D01*
X183133809Y-116173333D01*
X183371904Y-116173333D01*
X183467142Y-116220952D01*
X183514761Y-116268571D01*
X183562380Y-116363809D01*
X183562380Y-116601904D01*
X183514761Y-116697142D01*
X183467142Y-116744761D01*
%TO.C,D4*%
X186932380Y-73668095D02*
X185932380Y-73668095D01*
X185932380Y-73430000D01*
X185980000Y-73287142D01*
X186075238Y-73191904D01*
X186170476Y-73144285D01*
X186360952Y-73096666D01*
X186503809Y-73096666D01*
X186694285Y-73144285D01*
X186789523Y-73191904D01*
X186884761Y-73287142D01*
X186932380Y-73430000D01*
X186932380Y-73668095D01*
X186265714Y-72239523D02*
X186932380Y-72239523D01*
X185884761Y-72477619D02*
X186599047Y-72715714D01*
X186599047Y-72096666D01*
%TO.C,U5*%
X131842380Y-111851904D02*
X132651904Y-111851904D01*
X132747142Y-111804285D01*
X132794761Y-111756666D01*
X132842380Y-111661428D01*
X132842380Y-111470952D01*
X132794761Y-111375714D01*
X132747142Y-111328095D01*
X132651904Y-111280476D01*
X131842380Y-111280476D01*
X131842380Y-110328095D02*
X131842380Y-110804285D01*
X132318571Y-110851904D01*
X132270952Y-110804285D01*
X132223333Y-110709047D01*
X132223333Y-110470952D01*
X132270952Y-110375714D01*
X132318571Y-110328095D01*
X132413809Y-110280476D01*
X132651904Y-110280476D01*
X132747142Y-110328095D01*
X132794761Y-110375714D01*
X132842380Y-110470952D01*
X132842380Y-110709047D01*
X132794761Y-110804285D01*
X132747142Y-110851904D01*
%TO.C,C10*%
X159687142Y-88212857D02*
X159734761Y-88260476D01*
X159782380Y-88403333D01*
X159782380Y-88498571D01*
X159734761Y-88641428D01*
X159639523Y-88736666D01*
X159544285Y-88784285D01*
X159353809Y-88831904D01*
X159210952Y-88831904D01*
X159020476Y-88784285D01*
X158925238Y-88736666D01*
X158830000Y-88641428D01*
X158782380Y-88498571D01*
X158782380Y-88403333D01*
X158830000Y-88260476D01*
X158877619Y-88212857D01*
X159782380Y-87260476D02*
X159782380Y-87831904D01*
X159782380Y-87546190D02*
X158782380Y-87546190D01*
X158925238Y-87641428D01*
X159020476Y-87736666D01*
X159068095Y-87831904D01*
X158782380Y-86641428D02*
X158782380Y-86546190D01*
X158830000Y-86450952D01*
X158877619Y-86403333D01*
X158972857Y-86355714D01*
X159163333Y-86308095D01*
X159401428Y-86308095D01*
X159591904Y-86355714D01*
X159687142Y-86403333D01*
X159734761Y-86450952D01*
X159782380Y-86546190D01*
X159782380Y-86641428D01*
X159734761Y-86736666D01*
X159687142Y-86784285D01*
X159591904Y-86831904D01*
X159401428Y-86879523D01*
X159163333Y-86879523D01*
X158972857Y-86831904D01*
X158877619Y-86784285D01*
X158830000Y-86736666D01*
X158782380Y-86641428D01*
%TO.C,C4*%
X153847142Y-87786666D02*
X153894761Y-87834285D01*
X153942380Y-87977142D01*
X153942380Y-88072380D01*
X153894761Y-88215238D01*
X153799523Y-88310476D01*
X153704285Y-88358095D01*
X153513809Y-88405714D01*
X153370952Y-88405714D01*
X153180476Y-88358095D01*
X153085238Y-88310476D01*
X152990000Y-88215238D01*
X152942380Y-88072380D01*
X152942380Y-87977142D01*
X152990000Y-87834285D01*
X153037619Y-87786666D01*
X153275714Y-86929523D02*
X153942380Y-86929523D01*
X152894761Y-87167619D02*
X153609047Y-87405714D01*
X153609047Y-86786666D01*
%TO.C,C5*%
X150417142Y-87816666D02*
X150464761Y-87864285D01*
X150512380Y-88007142D01*
X150512380Y-88102380D01*
X150464761Y-88245238D01*
X150369523Y-88340476D01*
X150274285Y-88388095D01*
X150083809Y-88435714D01*
X149940952Y-88435714D01*
X149750476Y-88388095D01*
X149655238Y-88340476D01*
X149560000Y-88245238D01*
X149512380Y-88102380D01*
X149512380Y-88007142D01*
X149560000Y-87864285D01*
X149607619Y-87816666D01*
X149512380Y-86911904D02*
X149512380Y-87388095D01*
X149988571Y-87435714D01*
X149940952Y-87388095D01*
X149893333Y-87292857D01*
X149893333Y-87054761D01*
X149940952Y-86959523D01*
X149988571Y-86911904D01*
X150083809Y-86864285D01*
X150321904Y-86864285D01*
X150417142Y-86911904D01*
X150464761Y-86959523D01*
X150512380Y-87054761D01*
X150512380Y-87292857D01*
X150464761Y-87388095D01*
X150417142Y-87435714D01*
%TO.C,U1*%
X176460595Y-104252380D02*
X176460595Y-105061904D01*
X176508214Y-105157142D01*
X176555833Y-105204761D01*
X176651071Y-105252380D01*
X176841547Y-105252380D01*
X176936785Y-105204761D01*
X176984404Y-105157142D01*
X177032023Y-105061904D01*
X177032023Y-104252380D01*
X178032023Y-105252380D02*
X177460595Y-105252380D01*
X177746309Y-105252380D02*
X177746309Y-104252380D01*
X177651071Y-104395238D01*
X177555833Y-104490476D01*
X177460595Y-104538095D01*
D11*
%TO.C,R9*%
X184977258Y-70567500D02*
X184502742Y-70567500D01*
X184977258Y-71612500D02*
X184502742Y-71612500D01*
%TO.C,C7*%
X148935000Y-88091252D02*
X148935000Y-87568748D01*
X147465000Y-88091252D02*
X147465000Y-87568748D01*
%TO.C,C6*%
X123785000Y-99161252D02*
X123785000Y-98638748D01*
X122315000Y-99161252D02*
X122315000Y-98638748D01*
%TO.C,R10*%
X184587258Y-74332500D02*
X184112742Y-74332500D01*
X184587258Y-73287500D02*
X184112742Y-73287500D01*
%TO.C,D3*%
X185985000Y-70265000D02*
X185985000Y-67980000D01*
X184515000Y-67980000D02*
X184515000Y-70265000D01*
X184515000Y-70265000D02*
X185985000Y-70265000D01*
%TO.C,J1*%
X188890000Y-100900000D02*
X188490000Y-100900000D01*
X186520000Y-93380000D02*
X184540000Y-93380000D01*
X184540000Y-100900000D02*
X184540000Y-100480000D01*
X183860000Y-98450000D02*
X183860000Y-98900000D01*
X184540000Y-93380000D02*
X184540000Y-93800000D01*
X186520000Y-100900000D02*
X184540000Y-100900000D01*
X188490000Y-93380000D02*
X188890000Y-93380000D01*
X184310000Y-98900000D02*
X183860000Y-98900000D01*
%TO.C,U3*%
X118650000Y-96030000D02*
X116450000Y-96030000D01*
X118650000Y-92810000D02*
X120850000Y-92810000D01*
X118650000Y-96030000D02*
X120850000Y-96030000D01*
X118650000Y-92810000D02*
X115050000Y-92810000D01*
%TO.C,C2*%
X152475000Y-91681252D02*
X152475000Y-91158748D01*
X151005000Y-91681252D02*
X151005000Y-91158748D01*
D10*
%TO.C,U8*%
X183695000Y-79385000D02*
X183695000Y-80035000D01*
X177945000Y-79385000D02*
X177945000Y-79960000D01*
X177945000Y-90035000D02*
X177945000Y-89385000D01*
X177945000Y-79385000D02*
X183695000Y-79385000D01*
X183695000Y-90035000D02*
X183695000Y-89385000D01*
X177945000Y-90035000D02*
X183695000Y-90035000D01*
X177945000Y-79960000D02*
X176345000Y-79960000D01*
D12*
%TO.C,VR1*%
X143270000Y-95680000D02*
X139770000Y-95680000D01*
X139770000Y-95680000D02*
X139770000Y-94440000D01*
X143270000Y-89180000D02*
X139770000Y-89180000D01*
X139770000Y-89180000D02*
X139770000Y-90420000D01*
D13*
X146220000Y-94730000D02*
G75*
G03*
X146220000Y-94730000I-100000J0D01*
G01*
D11*
%TO.C,R3*%
X171425242Y-108002500D02*
X171899758Y-108002500D01*
X171425242Y-106957500D02*
X171899758Y-106957500D01*
%TO.C,C1*%
X175658748Y-114005000D02*
X176181252Y-114005000D01*
X175658748Y-112535000D02*
X176181252Y-112535000D01*
%TO.C,J3*%
X181670000Y-77530000D02*
X180340000Y-77530000D01*
X179070000Y-74870000D02*
X97730000Y-74870000D01*
X179070000Y-74870000D02*
X179070000Y-77530000D01*
X97730000Y-74870000D02*
X97730000Y-77530000D01*
X181670000Y-76200000D02*
X181670000Y-77530000D01*
X179070000Y-77530000D02*
X97730000Y-77530000D01*
%TO.C,R1*%
X182935242Y-109432500D02*
X183409758Y-109432500D01*
X182935242Y-108387500D02*
X183409758Y-108387500D01*
%TO.C,C3*%
X147415000Y-91871252D02*
X147415000Y-91348748D01*
X148885000Y-91871252D02*
X148885000Y-91348748D01*
%TO.C,C8*%
X165165000Y-87398748D02*
X165165000Y-87921252D01*
X163695000Y-87398748D02*
X163695000Y-87921252D01*
%TO.C,J2*%
X180340000Y-64710000D02*
X181670000Y-64710000D01*
X179070000Y-67370000D02*
X97730000Y-67370000D01*
X179070000Y-64710000D02*
X179070000Y-67370000D01*
X181670000Y-64710000D02*
X181670000Y-66040000D01*
X97730000Y-64710000D02*
X97730000Y-67370000D01*
X179070000Y-64710000D02*
X97730000Y-64710000D01*
%TO.C,R2*%
X182845242Y-106917500D02*
X183319758Y-106917500D01*
X182845242Y-107962500D02*
X183319758Y-107962500D01*
%TO.C,D2*%
X187520000Y-108335000D02*
X185235000Y-108335000D01*
X185235000Y-108335000D02*
X185235000Y-109805000D01*
X185235000Y-109805000D02*
X187520000Y-109805000D01*
%TO.C,R4*%
X113692742Y-100332500D02*
X114167258Y-100332500D01*
X113692742Y-99287500D02*
X114167258Y-99287500D01*
%TO.C,C9*%
X161935000Y-87418748D02*
X161935000Y-87941252D01*
X160465000Y-87418748D02*
X160465000Y-87941252D01*
%TO.C,R8*%
X135482258Y-102257500D02*
X135007742Y-102257500D01*
X135482258Y-103302500D02*
X135007742Y-103302500D01*
%TO.C,R5*%
X135527258Y-100242500D02*
X135052742Y-100242500D01*
X135527258Y-99197500D02*
X135052742Y-99197500D01*
%TO.C,U2*%
X118100000Y-98240000D02*
X118900000Y-98240000D01*
X118100000Y-101360000D02*
X118900000Y-101360000D01*
X118100000Y-101360000D02*
X117300000Y-101360000D01*
X118100000Y-98240000D02*
X116300000Y-98240000D01*
%TO.C,R7*%
X135407258Y-104957500D02*
X134932742Y-104957500D01*
X135407258Y-106002500D02*
X134932742Y-106002500D01*
%TO.C,D1*%
X187502500Y-106675000D02*
X185217500Y-106675000D01*
X185217500Y-108145000D02*
X187502500Y-108145000D01*
X185217500Y-106675000D02*
X185217500Y-108145000D01*
%TO.C,J6*%
X180340000Y-125670000D02*
X181670000Y-125670000D01*
X179070000Y-125670000D02*
X179070000Y-128330000D01*
X97730000Y-125670000D02*
X97730000Y-128330000D01*
X181670000Y-125670000D02*
X181670000Y-127000000D01*
X179070000Y-128330000D02*
X97730000Y-128330000D01*
X179070000Y-125670000D02*
X97730000Y-125670000D01*
%TO.C,U4*%
X95160000Y-113930000D02*
X95810000Y-113930000D01*
X95160000Y-110810000D02*
X93485000Y-110810000D01*
X95160000Y-113930000D02*
X94510000Y-113930000D01*
X95160000Y-110810000D02*
X95810000Y-110810000D01*
%TO.C,R6*%
X107997500Y-112877258D02*
X107997500Y-112402742D01*
X109042500Y-112877258D02*
X109042500Y-112402742D01*
%TO.C,J5*%
X179070000Y-115510000D02*
X179070000Y-118170000D01*
X181670000Y-118170000D02*
X180340000Y-118170000D01*
X97730000Y-115510000D02*
X97730000Y-118170000D01*
X179070000Y-115510000D02*
X97730000Y-115510000D01*
X181670000Y-116840000D02*
X181670000Y-118170000D01*
X179070000Y-118170000D02*
X97730000Y-118170000D01*
%TO.C,D4*%
X187175000Y-74415000D02*
X188645000Y-74415000D01*
X187175000Y-72130000D02*
X187175000Y-74415000D01*
X188645000Y-74415000D02*
X188645000Y-72130000D01*
%TO.C,U5*%
X138350000Y-111090000D02*
X138350000Y-113040000D01*
X133230000Y-111090000D02*
X133230000Y-109140000D01*
X133230000Y-111090000D02*
X133230000Y-114540000D01*
X138350000Y-111090000D02*
X138350000Y-109140000D01*
%TO.C,C10*%
X158385000Y-87308748D02*
X158385000Y-87831252D01*
X156915000Y-87308748D02*
X156915000Y-87831252D01*
%TO.C,C4*%
X155905000Y-87881252D02*
X155905000Y-87358748D01*
X154435000Y-87881252D02*
X154435000Y-87358748D01*
%TO.C,C5*%
X152475000Y-87911252D02*
X152475000Y-87388748D01*
X151005000Y-87911252D02*
X151005000Y-87388748D01*
D10*
%TO.C,U1*%
X175147500Y-105525000D02*
X175147500Y-105725000D01*
X179297500Y-105525000D02*
X179297500Y-105725000D01*
X175147500Y-105525000D02*
X179297500Y-105525000D01*
X175147500Y-105725000D02*
X173847500Y-105725000D01*
X179297500Y-110675000D02*
X179297500Y-110475000D01*
X175147500Y-110675000D02*
X175147500Y-110475000D01*
X175147500Y-110675000D02*
X179297500Y-110675000D01*
%TD*%
M02*
