%TF.GenerationSoftware,KiCad,Pcbnew,6.0.4-6f826c9f35~116~ubuntu21.10.1*%
%TF.CreationDate,2022-03-20T22:22:29+02:00*%
%TF.ProjectId,main,6d61696e-2e6b-4696-9361-645f70636258,rev?*%
%TF.SameCoordinates,Original*%
%TF.FileFunction,Paste,Top*%
%TF.FilePolarity,Positive*%
%FSLAX46Y46*%
G04 Gerber Fmt 4.6, Leading zero omitted, Abs format (unit mm)*
G04 Created by KiCad (PCBNEW 6.0.4-6f826c9f35~116~ubuntu21.10.1) date 2022-03-20 22:22:29*
%MOMM*%
%LPD*%
G01*
G04 APERTURE LIST*
G04 Aperture macros list*
%AMRoundRect*
0 Rectangle with rounded corners*
0 $1 Rounding radius*
0 $2 $3 $4 $5 $6 $7 $8 $9 X,Y pos of 4 corners*
0 Add a 4 corners polygon primitive as box body*
4,1,4,$2,$3,$4,$5,$6,$7,$8,$9,$2,$3,0*
0 Add four circle primitives for the rounded corners*
1,1,$1+$1,$2,$3*
1,1,$1+$1,$4,$5*
1,1,$1+$1,$6,$7*
1,1,$1+$1,$8,$9*
0 Add four rect primitives between the rounded corners*
20,1,$1+$1,$2,$3,$4,$5,0*
20,1,$1+$1,$4,$5,$6,$7,0*
20,1,$1+$1,$6,$7,$8,$9,0*
20,1,$1+$1,$8,$9,$2,$3,0*%
G04 Aperture macros list end*
%ADD10C,0.120000*%
%ADD11R,1.500000X0.650000*%
%ADD12R,2.700000X3.600000*%
%ADD13RoundRect,0.200000X-0.200000X-0.275000X0.200000X-0.275000X0.200000X0.275000X-0.200000X0.275000X0*%
%ADD14RoundRect,0.250000X0.475000X-0.250000X0.475000X0.250000X-0.475000X0.250000X-0.475000X-0.250000X0*%
%ADD15RoundRect,0.150000X0.825000X0.150000X-0.825000X0.150000X-0.825000X-0.150000X0.825000X-0.150000X0*%
%ADD16R,1.750000X0.450000*%
%ADD17RoundRect,0.218750X-0.218750X-0.256250X0.218750X-0.256250X0.218750X0.256250X-0.218750X0.256250X0*%
%ADD18RoundRect,0.218750X0.256250X-0.218750X0.256250X0.218750X-0.256250X0.218750X-0.256250X-0.218750X0*%
%ADD19O,1.550000X0.890000*%
%ADD20O,0.950000X1.250000*%
%ADD21R,1.350000X0.400000*%
%ADD22R,1.550000X1.200000*%
%ADD23R,1.550000X1.500000*%
%ADD24RoundRect,0.200000X0.200000X0.275000X-0.200000X0.275000X-0.200000X-0.275000X0.200000X-0.275000X0*%
%ADD25RoundRect,0.150000X0.512500X0.150000X-0.512500X0.150000X-0.512500X-0.150000X0.512500X-0.150000X0*%
%ADD26RoundRect,0.250000X-0.475000X0.250000X-0.475000X-0.250000X0.475000X-0.250000X0.475000X0.250000X0*%
%ADD27RoundRect,0.250000X-0.250000X-0.475000X0.250000X-0.475000X0.250000X0.475000X-0.250000X0.475000X0*%
%ADD28RoundRect,0.200000X-0.275000X0.200000X-0.275000X-0.200000X0.275000X-0.200000X0.275000X0.200000X0*%
%ADD29RoundRect,0.100000X-0.637500X-0.100000X0.637500X-0.100000X0.637500X0.100000X-0.637500X0.100000X0*%
%ADD30RoundRect,0.218750X-0.256250X0.218750X-0.256250X-0.218750X0.256250X-0.218750X0.256250X0.218750X0*%
%ADD31RoundRect,0.150000X-0.587500X-0.150000X0.587500X-0.150000X0.587500X0.150000X-0.587500X0.150000X0*%
G04 APERTURE END LIST*
D10*
%TO.C,BT1*%
X96650000Y-86000000D02*
X96650000Y-106700000D01*
X173750000Y-86000000D02*
X96650000Y-86000000D01*
X173750000Y-106700000D02*
X173750000Y-86000000D01*
X96650000Y-106700000D02*
X173750000Y-106700000D01*
%TD*%
D11*
%TO.C,U1*%
X179250000Y-109835000D03*
X179250000Y-108565000D03*
X179250000Y-107295000D03*
X179250000Y-106025000D03*
X173850000Y-106025000D03*
X173850000Y-107295000D03*
X173850000Y-108565000D03*
X173850000Y-109835000D03*
D12*
X176550000Y-107930000D03*
%TD*%
D13*
%TO.C,R1*%
X173695000Y-103270000D03*
X175345000Y-103270000D03*
%TD*%
D14*
%TO.C,C2*%
X170060000Y-105990000D03*
X170060000Y-104090000D03*
%TD*%
D15*
%TO.C,U5*%
X147290000Y-106300000D03*
X147290000Y-105030000D03*
X147290000Y-103760000D03*
X147290000Y-102490000D03*
X142340000Y-102490000D03*
X142340000Y-103760000D03*
X142340000Y-105030000D03*
X142340000Y-106300000D03*
%TD*%
D16*
%TO.C,U8*%
X159170000Y-82345000D03*
X159170000Y-82995000D03*
X159170000Y-83645000D03*
X159170000Y-84295000D03*
X159170000Y-84945000D03*
X159170000Y-85595000D03*
X159170000Y-86245000D03*
X159170000Y-86895000D03*
X159170000Y-87545000D03*
X159170000Y-88195000D03*
X159170000Y-88845000D03*
X159170000Y-89495000D03*
X159170000Y-90145000D03*
X159170000Y-90795000D03*
X166370000Y-90795000D03*
X166370000Y-90145000D03*
X166370000Y-89495000D03*
X166370000Y-88845000D03*
X166370000Y-88195000D03*
X166370000Y-87545000D03*
X166370000Y-86895000D03*
X166370000Y-86245000D03*
X166370000Y-85595000D03*
X166370000Y-84945000D03*
X166370000Y-84295000D03*
X166370000Y-83645000D03*
X166370000Y-82995000D03*
X166370000Y-82345000D03*
%TD*%
D17*
%TO.C,D3*%
X180942500Y-81782500D03*
X182517500Y-81782500D03*
%TD*%
D18*
%TO.C,D1*%
X183080000Y-111900000D03*
X183080000Y-110325000D03*
%TD*%
D19*
%TO.C,J1*%
X180970000Y-93120000D03*
D20*
X178270000Y-99120000D03*
X178270000Y-94120000D03*
D19*
X180970000Y-100120000D03*
D21*
X178270000Y-97920000D03*
X178270000Y-97270000D03*
X178270000Y-96620000D03*
X178270000Y-95970000D03*
X178270000Y-95320000D03*
D22*
X180970000Y-93720000D03*
X180970000Y-99520000D03*
D23*
X180970000Y-97620000D03*
X180970000Y-95620000D03*
%TD*%
D13*
%TO.C,R4*%
X110425000Y-92230000D03*
X112075000Y-92230000D03*
%TD*%
D24*
%TO.C,R12*%
X173665000Y-87120000D03*
X172015000Y-87120000D03*
%TD*%
D25*
%TO.C,U2*%
X112347500Y-98260000D03*
X112347500Y-97310000D03*
X112347500Y-96360000D03*
X110072500Y-96360000D03*
X110072500Y-97310000D03*
X110072500Y-98260000D03*
%TD*%
D26*
%TO.C,C1*%
X170470000Y-109860000D03*
X170470000Y-111760000D03*
%TD*%
D24*
%TO.C,R11*%
X173680000Y-81810000D03*
X172030000Y-81810000D03*
%TD*%
D13*
%TO.C,R2*%
X173785000Y-113210000D03*
X175435000Y-113210000D03*
%TD*%
D27*
%TO.C,C3*%
X103770000Y-101160000D03*
X105670000Y-101160000D03*
%TD*%
D28*
%TO.C,R10*%
X137240000Y-102555000D03*
X137240000Y-104205000D03*
%TD*%
D17*
%TO.C,D4*%
X180942500Y-87160000D03*
X182517500Y-87160000D03*
%TD*%
D29*
%TO.C,U3*%
X115527500Y-96245000D03*
X115527500Y-96895000D03*
X115527500Y-97545000D03*
X115527500Y-98195000D03*
X121252500Y-98195000D03*
X121252500Y-97545000D03*
X121252500Y-96895000D03*
X121252500Y-96245000D03*
%TD*%
D24*
%TO.C,R7*%
X162175000Y-111610000D03*
X160525000Y-111610000D03*
%TD*%
D28*
%TO.C,R9*%
X139290000Y-109435000D03*
X139290000Y-111085000D03*
%TD*%
%TO.C,R5*%
X103780000Y-96105000D03*
X103780000Y-97755000D03*
%TD*%
D30*
%TO.C,D2*%
X183110000Y-103402500D03*
X183110000Y-104977500D03*
%TD*%
D13*
%TO.C,R8*%
X104175000Y-112880000D03*
X105825000Y-112880000D03*
%TD*%
D28*
%TO.C,R6*%
X165330000Y-109975000D03*
X165330000Y-111625000D03*
%TD*%
D31*
%TO.C,U4*%
X91712500Y-110790000D03*
X91712500Y-112690000D03*
X93587500Y-111740000D03*
%TD*%
D28*
%TO.C,R3*%
X183030000Y-106895000D03*
X183030000Y-108545000D03*
%TD*%
M02*
