%TF.GenerationSoftware,KiCad,Pcbnew,6.0.4-6f826c9f35~116~ubuntu21.10.1*%
%TF.CreationDate,2022-04-08T15:22:27+02:00*%
%TF.ProjectId,main,6d61696e-2e6b-4696-9361-645f70636258,rev?*%
%TF.SameCoordinates,Original*%
%TF.FileFunction,Legend,Bot*%
%TF.FilePolarity,Positive*%
%FSLAX46Y46*%
G04 Gerber Fmt 4.6, Leading zero omitted, Abs format (unit mm)*
G04 Created by KiCad (PCBNEW 6.0.4-6f826c9f35~116~ubuntu21.10.1) date 2022-04-08 15:22:27*
%MOMM*%
%LPD*%
G01*
G04 APERTURE LIST*
%ADD10C,0.150000*%
%ADD11C,0.120000*%
%ADD12C,0.200000*%
G04 APERTURE END LIST*
D10*
X168863690Y-110892380D02*
X168863690Y-109892380D01*
X168625595Y-109892380D01*
X168482738Y-109940000D01*
X168387500Y-110035238D01*
X168339880Y-110130476D01*
X168292261Y-110320952D01*
X168292261Y-110463809D01*
X168339880Y-110654285D01*
X168387500Y-110749523D01*
X168482738Y-110844761D01*
X168625595Y-110892380D01*
X168863690Y-110892380D01*
X167863690Y-110368571D02*
X167530357Y-110368571D01*
X167387500Y-110892380D02*
X167863690Y-110892380D01*
X167863690Y-109892380D01*
X167387500Y-109892380D01*
X167006547Y-110844761D02*
X166863690Y-110892380D01*
X166625595Y-110892380D01*
X166530357Y-110844761D01*
X166482738Y-110797142D01*
X166435119Y-110701904D01*
X166435119Y-110606666D01*
X166482738Y-110511428D01*
X166530357Y-110463809D01*
X166625595Y-110416190D01*
X166816071Y-110368571D01*
X166911309Y-110320952D01*
X166958928Y-110273333D01*
X167006547Y-110178095D01*
X167006547Y-110082857D01*
X166958928Y-109987619D01*
X166911309Y-109940000D01*
X166816071Y-109892380D01*
X166577976Y-109892380D01*
X166435119Y-109940000D01*
X166006547Y-110892380D02*
X166006547Y-109892380D01*
X165006547Y-109940000D02*
X165101785Y-109892380D01*
X165244642Y-109892380D01*
X165387500Y-109940000D01*
X165482738Y-110035238D01*
X165530357Y-110130476D01*
X165577976Y-110320952D01*
X165577976Y-110463809D01*
X165530357Y-110654285D01*
X165482738Y-110749523D01*
X165387500Y-110844761D01*
X165244642Y-110892380D01*
X165149404Y-110892380D01*
X165006547Y-110844761D01*
X164958928Y-110797142D01*
X164958928Y-110463809D01*
X165149404Y-110463809D01*
X164530357Y-110892380D02*
X164530357Y-109892380D01*
X163958928Y-110892380D01*
X163958928Y-109892380D01*
X163482738Y-110368571D02*
X163149404Y-110368571D01*
X163006547Y-110892380D02*
X163482738Y-110892380D01*
X163482738Y-109892380D01*
X163006547Y-109892380D01*
X162577976Y-110892380D02*
X162577976Y-109892380D01*
X162339880Y-109892380D01*
X162197023Y-109940000D01*
X162101785Y-110035238D01*
X162054166Y-110130476D01*
X162006547Y-110320952D01*
X162006547Y-110463809D01*
X162054166Y-110654285D01*
X162101785Y-110749523D01*
X162197023Y-110844761D01*
X162339880Y-110892380D01*
X162577976Y-110892380D01*
X160482738Y-110368571D02*
X160339880Y-110416190D01*
X160292261Y-110463809D01*
X160244642Y-110559047D01*
X160244642Y-110701904D01*
X160292261Y-110797142D01*
X160339880Y-110844761D01*
X160435119Y-110892380D01*
X160816071Y-110892380D01*
X160816071Y-109892380D01*
X160482738Y-109892380D01*
X160387500Y-109940000D01*
X160339880Y-109987619D01*
X160292261Y-110082857D01*
X160292261Y-110178095D01*
X160339880Y-110273333D01*
X160387500Y-110320952D01*
X160482738Y-110368571D01*
X160816071Y-110368571D01*
X159625595Y-110416190D02*
X159625595Y-110892380D01*
X159958928Y-109892380D02*
X159625595Y-110416190D01*
X159292261Y-109892380D01*
X157673214Y-109940000D02*
X157768452Y-109892380D01*
X157911309Y-109892380D01*
X158054166Y-109940000D01*
X158149404Y-110035238D01*
X158197023Y-110130476D01*
X158244642Y-110320952D01*
X158244642Y-110463809D01*
X158197023Y-110654285D01*
X158149404Y-110749523D01*
X158054166Y-110844761D01*
X157911309Y-110892380D01*
X157816071Y-110892380D01*
X157673214Y-110844761D01*
X157625595Y-110797142D01*
X157625595Y-110463809D01*
X157816071Y-110463809D01*
X157197023Y-110797142D02*
X157149404Y-110844761D01*
X157197023Y-110892380D01*
X157244642Y-110844761D01*
X157197023Y-110797142D01*
X157197023Y-110892380D01*
X156720833Y-110892380D02*
X156720833Y-109892380D01*
X156149404Y-110892380D01*
X156149404Y-109892380D01*
X155673214Y-110797142D02*
X155625595Y-110844761D01*
X155673214Y-110892380D01*
X155720833Y-110844761D01*
X155673214Y-110797142D01*
X155673214Y-110892380D01*
X155197023Y-110892380D02*
X155197023Y-109892380D01*
X154863690Y-110606666D01*
X154530357Y-109892380D01*
X154530357Y-110892380D01*
X154101785Y-110606666D02*
X153625595Y-110606666D01*
X154197023Y-110892380D02*
X153863690Y-109892380D01*
X153530357Y-110892380D01*
X153244642Y-110844761D02*
X153101785Y-110892380D01*
X152863690Y-110892380D01*
X152768452Y-110844761D01*
X152720833Y-110797142D01*
X152673214Y-110701904D01*
X152673214Y-110606666D01*
X152720833Y-110511428D01*
X152768452Y-110463809D01*
X152863690Y-110416190D01*
X153054166Y-110368571D01*
X153149404Y-110320952D01*
X153197023Y-110273333D01*
X153244642Y-110178095D01*
X153244642Y-110082857D01*
X153197023Y-109987619D01*
X153149404Y-109940000D01*
X153054166Y-109892380D01*
X152816071Y-109892380D01*
X152673214Y-109940000D01*
X152339880Y-109892380D02*
X152101785Y-110892380D01*
X151911309Y-110178095D01*
X151720833Y-110892380D01*
X151482738Y-109892380D01*
X150911309Y-109892380D02*
X150720833Y-109892380D01*
X150625595Y-109940000D01*
X150530357Y-110035238D01*
X150482738Y-110225714D01*
X150482738Y-110559047D01*
X150530357Y-110749523D01*
X150625595Y-110844761D01*
X150720833Y-110892380D01*
X150911309Y-110892380D01*
X151006547Y-110844761D01*
X151101785Y-110749523D01*
X151149404Y-110559047D01*
X151149404Y-110225714D01*
X151101785Y-110035238D01*
X151006547Y-109940000D01*
X150911309Y-109892380D01*
X150101785Y-110844761D02*
X149958928Y-110892380D01*
X149720833Y-110892380D01*
X149625595Y-110844761D01*
X149577976Y-110797142D01*
X149530357Y-110701904D01*
X149530357Y-110606666D01*
X149577976Y-110511428D01*
X149625595Y-110463809D01*
X149720833Y-110416190D01*
X149911309Y-110368571D01*
X150006547Y-110320952D01*
X150054166Y-110273333D01*
X150101785Y-110178095D01*
X150101785Y-110082857D01*
X150054166Y-109987619D01*
X150006547Y-109940000D01*
X149911309Y-109892380D01*
X149673214Y-109892380D01*
X149530357Y-109940000D01*
X149197023Y-109892380D02*
X148958928Y-110892380D01*
X148768452Y-110178095D01*
X148577976Y-110892380D01*
X148339880Y-109892380D01*
X147958928Y-110368571D02*
X147625595Y-110368571D01*
X147482738Y-110892380D02*
X147958928Y-110892380D01*
X147958928Y-109892380D01*
X147482738Y-109892380D01*
X146482738Y-110892380D02*
X146816071Y-110416190D01*
X147054166Y-110892380D02*
X147054166Y-109892380D01*
X146673214Y-109892380D01*
X146577976Y-109940000D01*
X146530357Y-109987619D01*
X146482738Y-110082857D01*
X146482738Y-110225714D01*
X146530357Y-110320952D01*
X146577976Y-110368571D01*
X146673214Y-110416190D01*
X147054166Y-110416190D01*
X146054166Y-110368571D02*
X145720833Y-110368571D01*
X145577976Y-110892380D02*
X146054166Y-110892380D01*
X146054166Y-109892380D01*
X145577976Y-109892380D01*
X166677261Y-112117380D02*
X166105833Y-112117380D01*
X166391547Y-113117380D02*
X166391547Y-112117380D01*
X165772500Y-113022142D02*
X165724880Y-113069761D01*
X165772500Y-113117380D01*
X165820119Y-113069761D01*
X165772500Y-113022142D01*
X165772500Y-113117380D01*
X165439166Y-112117380D02*
X164867738Y-112117380D01*
X165153452Y-113117380D02*
X165153452Y-112117380D01*
X164343928Y-112117380D02*
X164153452Y-112117380D01*
X164058214Y-112165000D01*
X163962976Y-112260238D01*
X163915357Y-112450714D01*
X163915357Y-112784047D01*
X163962976Y-112974523D01*
X164058214Y-113069761D01*
X164153452Y-113117380D01*
X164343928Y-113117380D01*
X164439166Y-113069761D01*
X164534404Y-112974523D01*
X164582023Y-112784047D01*
X164582023Y-112450714D01*
X164534404Y-112260238D01*
X164439166Y-112165000D01*
X164343928Y-112117380D01*
X162962976Y-112165000D02*
X163058214Y-112117380D01*
X163201071Y-112117380D01*
X163343928Y-112165000D01*
X163439166Y-112260238D01*
X163486785Y-112355476D01*
X163534404Y-112545952D01*
X163534404Y-112688809D01*
X163486785Y-112879285D01*
X163439166Y-112974523D01*
X163343928Y-113069761D01*
X163201071Y-113117380D01*
X163105833Y-113117380D01*
X162962976Y-113069761D01*
X162915357Y-113022142D01*
X162915357Y-112688809D01*
X163105833Y-112688809D01*
X162534404Y-112831666D02*
X162058214Y-112831666D01*
X162629642Y-113117380D02*
X162296309Y-112117380D01*
X161962976Y-113117380D01*
X161058214Y-113117380D02*
X161391547Y-112641190D01*
X161629642Y-113117380D02*
X161629642Y-112117380D01*
X161248690Y-112117380D01*
X161153452Y-112165000D01*
X161105833Y-112212619D01*
X161058214Y-112307857D01*
X161058214Y-112450714D01*
X161105833Y-112545952D01*
X161153452Y-112593571D01*
X161248690Y-112641190D01*
X161629642Y-112641190D01*
X160677261Y-112831666D02*
X160201071Y-112831666D01*
X160772500Y-113117380D02*
X160439166Y-112117380D01*
X160105833Y-113117380D01*
X166534404Y-114727380D02*
X166534404Y-113727380D01*
X166201071Y-114441666D01*
X165867738Y-113727380D01*
X165867738Y-114727380D01*
X165391547Y-114632142D02*
X165343928Y-114679761D01*
X165391547Y-114727380D01*
X165439166Y-114679761D01*
X165391547Y-114632142D01*
X165391547Y-114727380D01*
X164915357Y-114727380D02*
X164915357Y-113727380D01*
X164582023Y-114441666D01*
X164248690Y-113727380D01*
X164248690Y-114727380D01*
X163772500Y-113727380D02*
X163772500Y-114536904D01*
X163724880Y-114632142D01*
X163677261Y-114679761D01*
X163582023Y-114727380D01*
X163391547Y-114727380D01*
X163296309Y-114679761D01*
X163248690Y-114632142D01*
X163201071Y-114536904D01*
X163201071Y-113727380D01*
X162867738Y-113727380D02*
X162296309Y-113727380D01*
X162582023Y-114727380D02*
X162582023Y-113727380D01*
X161962976Y-114727380D02*
X161962976Y-113727380D01*
X161486785Y-114727380D02*
X161486785Y-113727380D01*
X160915357Y-114727380D02*
X161343928Y-114155952D01*
X160915357Y-113727380D02*
X161486785Y-114298809D01*
X160486785Y-114203571D02*
X160153452Y-114203571D01*
X160010595Y-114727380D02*
X160486785Y-114727380D01*
X160486785Y-113727380D01*
X160010595Y-113727380D01*
X159582023Y-114727380D02*
X159582023Y-113727380D01*
X159343928Y-113727380D01*
X159201071Y-113775000D01*
X159105833Y-113870238D01*
X159058214Y-113965476D01*
X159010595Y-114155952D01*
X159010595Y-114298809D01*
X159058214Y-114489285D01*
X159105833Y-114584523D01*
X159201071Y-114679761D01*
X159343928Y-114727380D01*
X159582023Y-114727380D01*
X158677261Y-113727380D02*
X158010595Y-113727380D01*
X158677261Y-114727380D01*
X158010595Y-114727380D01*
X157629642Y-114727380D02*
X157629642Y-113727380D01*
%TO.C,J4*%
X88363333Y-82117380D02*
X88363333Y-82831666D01*
X88410952Y-82974523D01*
X88506190Y-83069761D01*
X88649047Y-83117380D01*
X88744285Y-83117380D01*
X87458571Y-82450714D02*
X87458571Y-83117380D01*
X87696666Y-82069761D02*
X87934761Y-82784047D01*
X87315714Y-82784047D01*
%TO.C,JP5*%
X164203333Y-82192380D02*
X164203333Y-82906666D01*
X164250952Y-83049523D01*
X164346190Y-83144761D01*
X164489047Y-83192380D01*
X164584285Y-83192380D01*
X163727142Y-83192380D02*
X163727142Y-82192380D01*
X163346190Y-82192380D01*
X163250952Y-82240000D01*
X163203333Y-82287619D01*
X163155714Y-82382857D01*
X163155714Y-82525714D01*
X163203333Y-82620952D01*
X163250952Y-82668571D01*
X163346190Y-82716190D01*
X163727142Y-82716190D01*
X162250952Y-82192380D02*
X162727142Y-82192380D01*
X162774761Y-82668571D01*
X162727142Y-82620952D01*
X162631904Y-82573333D01*
X162393809Y-82573333D01*
X162298571Y-82620952D01*
X162250952Y-82668571D01*
X162203333Y-82763809D01*
X162203333Y-83001904D01*
X162250952Y-83097142D01*
X162298571Y-83144761D01*
X162393809Y-83192380D01*
X162631904Y-83192380D01*
X162727142Y-83144761D01*
X162774761Y-83097142D01*
%TO.C,JP1*%
X118507380Y-80446666D02*
X119221666Y-80446666D01*
X119364523Y-80399047D01*
X119459761Y-80303809D01*
X119507380Y-80160952D01*
X119507380Y-80065714D01*
X119507380Y-80922857D02*
X118507380Y-80922857D01*
X118507380Y-81303809D01*
X118555000Y-81399047D01*
X118602619Y-81446666D01*
X118697857Y-81494285D01*
X118840714Y-81494285D01*
X118935952Y-81446666D01*
X118983571Y-81399047D01*
X119031190Y-81303809D01*
X119031190Y-80922857D01*
X119507380Y-82446666D02*
X119507380Y-81875238D01*
X119507380Y-82160952D02*
X118507380Y-82160952D01*
X118650238Y-82065714D01*
X118745476Y-81970476D01*
X118793095Y-81875238D01*
%TO.C,U6*%
X91419404Y-63479880D02*
X91419404Y-64289404D01*
X91371785Y-64384642D01*
X91324166Y-64432261D01*
X91228928Y-64479880D01*
X91038452Y-64479880D01*
X90943214Y-64432261D01*
X90895595Y-64384642D01*
X90847976Y-64289404D01*
X90847976Y-63479880D01*
X89943214Y-63479880D02*
X90133690Y-63479880D01*
X90228928Y-63527500D01*
X90276547Y-63575119D01*
X90371785Y-63717976D01*
X90419404Y-63908452D01*
X90419404Y-64289404D01*
X90371785Y-64384642D01*
X90324166Y-64432261D01*
X90228928Y-64479880D01*
X90038452Y-64479880D01*
X89943214Y-64432261D01*
X89895595Y-64384642D01*
X89847976Y-64289404D01*
X89847976Y-64051309D01*
X89895595Y-63956071D01*
X89943214Y-63908452D01*
X90038452Y-63860833D01*
X90228928Y-63860833D01*
X90324166Y-63908452D01*
X90371785Y-63956071D01*
X90419404Y-64051309D01*
%TO.C,U7*%
X97152380Y-94298095D02*
X97961904Y-94298095D01*
X98057142Y-94345714D01*
X98104761Y-94393333D01*
X98152380Y-94488571D01*
X98152380Y-94679047D01*
X98104761Y-94774285D01*
X98057142Y-94821904D01*
X97961904Y-94869523D01*
X97152380Y-94869523D01*
X97152380Y-95250476D02*
X97152380Y-95917142D01*
X98152380Y-95488571D01*
%TO.C,JP3*%
X140407380Y-80526666D02*
X141121666Y-80526666D01*
X141264523Y-80479047D01*
X141359761Y-80383809D01*
X141407380Y-80240952D01*
X141407380Y-80145714D01*
X141407380Y-81002857D02*
X140407380Y-81002857D01*
X140407380Y-81383809D01*
X140455000Y-81479047D01*
X140502619Y-81526666D01*
X140597857Y-81574285D01*
X140740714Y-81574285D01*
X140835952Y-81526666D01*
X140883571Y-81479047D01*
X140931190Y-81383809D01*
X140931190Y-81002857D01*
X140407380Y-81907619D02*
X140407380Y-82526666D01*
X140788333Y-82193333D01*
X140788333Y-82336190D01*
X140835952Y-82431428D01*
X140883571Y-82479047D01*
X140978809Y-82526666D01*
X141216904Y-82526666D01*
X141312142Y-82479047D01*
X141359761Y-82431428D01*
X141407380Y-82336190D01*
X141407380Y-82050476D01*
X141359761Y-81955238D01*
X141312142Y-81907619D01*
%TO.C,BT1*%
X139055714Y-84558571D02*
X138912857Y-84606190D01*
X138865238Y-84653809D01*
X138817619Y-84749047D01*
X138817619Y-84891904D01*
X138865238Y-84987142D01*
X138912857Y-85034761D01*
X139008095Y-85082380D01*
X139389047Y-85082380D01*
X139389047Y-84082380D01*
X139055714Y-84082380D01*
X138960476Y-84130000D01*
X138912857Y-84177619D01*
X138865238Y-84272857D01*
X138865238Y-84368095D01*
X138912857Y-84463333D01*
X138960476Y-84510952D01*
X139055714Y-84558571D01*
X139389047Y-84558571D01*
X138531904Y-84082380D02*
X137960476Y-84082380D01*
X138246190Y-85082380D02*
X138246190Y-84082380D01*
X137103333Y-85082380D02*
X137674761Y-85082380D01*
X137389047Y-85082380D02*
X137389047Y-84082380D01*
X137484285Y-84225238D01*
X137579523Y-84320476D01*
X137674761Y-84368095D01*
%TO.C,JP2*%
X113142380Y-111806666D02*
X113856666Y-111806666D01*
X113999523Y-111759047D01*
X114094761Y-111663809D01*
X114142380Y-111520952D01*
X114142380Y-111425714D01*
X114142380Y-112282857D02*
X113142380Y-112282857D01*
X113142380Y-112663809D01*
X113190000Y-112759047D01*
X113237619Y-112806666D01*
X113332857Y-112854285D01*
X113475714Y-112854285D01*
X113570952Y-112806666D01*
X113618571Y-112759047D01*
X113666190Y-112663809D01*
X113666190Y-112282857D01*
X113237619Y-113235238D02*
X113190000Y-113282857D01*
X113142380Y-113378095D01*
X113142380Y-113616190D01*
X113190000Y-113711428D01*
X113237619Y-113759047D01*
X113332857Y-113806666D01*
X113428095Y-113806666D01*
X113570952Y-113759047D01*
X114142380Y-113187619D01*
X114142380Y-113806666D01*
%TO.C,JP4*%
X153522380Y-80826666D02*
X154236666Y-80826666D01*
X154379523Y-80779047D01*
X154474761Y-80683809D01*
X154522380Y-80540952D01*
X154522380Y-80445714D01*
X154522380Y-81302857D02*
X153522380Y-81302857D01*
X153522380Y-81683809D01*
X153570000Y-81779047D01*
X153617619Y-81826666D01*
X153712857Y-81874285D01*
X153855714Y-81874285D01*
X153950952Y-81826666D01*
X153998571Y-81779047D01*
X154046190Y-81683809D01*
X154046190Y-81302857D01*
X153855714Y-82731428D02*
X154522380Y-82731428D01*
X153474761Y-82493333D02*
X154189047Y-82255238D01*
X154189047Y-82874285D01*
D11*
%TO.C,J4*%
X86700000Y-86265000D02*
X86700000Y-109185000D01*
X89360000Y-109185000D02*
X86700000Y-109185000D01*
X89360000Y-83665000D02*
X88030000Y-83665000D01*
X89360000Y-86265000D02*
X86700000Y-86265000D01*
X89360000Y-84995000D02*
X89360000Y-83665000D01*
X89360000Y-86265000D02*
X89360000Y-109185000D01*
D10*
%TO.C,JP5*%
X161540000Y-81640000D02*
X165140000Y-81640000D01*
X165140000Y-81640000D02*
X165640000Y-81140000D01*
X161040000Y-81140000D02*
X161540000Y-81640000D01*
X161040000Y-80340000D02*
X161040000Y-81140000D01*
X165140000Y-79840000D02*
X161540000Y-79840000D01*
X165640000Y-81140000D02*
X165640000Y-80340000D01*
X161540000Y-79840000D02*
X161040000Y-80340000D01*
X165640000Y-80340000D02*
X165140000Y-79840000D01*
D11*
%TO.C,JP1*%
X120055000Y-79950000D02*
X120055000Y-81280000D01*
X122655000Y-79950000D02*
X122655000Y-82610000D01*
X122655000Y-82610000D02*
X127795000Y-82610000D01*
X121385000Y-79950000D02*
X120055000Y-79950000D01*
X122655000Y-79950000D02*
X127795000Y-79950000D01*
X127795000Y-79950000D02*
X127795000Y-82610000D01*
%TO.C,U6*%
X92817500Y-64927500D02*
X91207500Y-64927500D01*
X92537500Y-77467500D02*
X92537500Y-65217500D01*
X92527500Y-65207500D02*
X86787500Y-65207500D01*
X86777500Y-77467500D02*
X92537500Y-77467500D01*
X92817500Y-64927500D02*
X92817500Y-66927500D01*
X86777500Y-65207500D02*
X86777500Y-77467500D01*
%TO.C,U7*%
X92290000Y-96860000D02*
X92290000Y-93260000D01*
X96740001Y-95060000D02*
G75*
G03*
X92301522Y-93221522I-2600001J0D01*
G01*
X92301522Y-96898478D02*
G75*
G03*
X96740000Y-95060000I1838478J1838478D01*
G01*
%TO.C,JP3*%
X132215000Y-82690000D02*
X132215000Y-80030000D01*
X137355000Y-80030000D02*
X132215000Y-80030000D01*
X137355000Y-82690000D02*
X137355000Y-80030000D01*
X137355000Y-82690000D02*
X132215000Y-82690000D01*
X138625000Y-82690000D02*
X139955000Y-82690000D01*
X139955000Y-82690000D02*
X139955000Y-81360000D01*
D12*
%TO.C,BT1*%
X166070000Y-98930000D02*
X166070000Y-94930000D01*
X164070000Y-96830000D02*
X168070000Y-96830000D01*
D11*
%TO.C,JP2*%
X122430000Y-111310000D02*
X122430000Y-113970000D01*
X117290000Y-113970000D02*
X122430000Y-113970000D01*
X117290000Y-111310000D02*
X122430000Y-111310000D01*
X116020000Y-111310000D02*
X114690000Y-111310000D01*
X114690000Y-111310000D02*
X114690000Y-112640000D01*
X117290000Y-111310000D02*
X117290000Y-113970000D01*
%TO.C,JP4*%
X145330000Y-82990000D02*
X145330000Y-80330000D01*
X150470000Y-82990000D02*
X145330000Y-82990000D01*
X150470000Y-80330000D02*
X145330000Y-80330000D01*
X151740000Y-82990000D02*
X153070000Y-82990000D01*
X153070000Y-82990000D02*
X153070000Y-81660000D01*
X150470000Y-82990000D02*
X150470000Y-80330000D01*
%TD*%
M02*
