%TF.GenerationSoftware,KiCad,Pcbnew,6.0.4-6f826c9f35~116~ubuntu21.10.1*%
%TF.CreationDate,2022-04-08T15:22:27+02:00*%
%TF.ProjectId,main,6d61696e-2e6b-4696-9361-645f70636258,rev?*%
%TF.SameCoordinates,Original*%
%TF.FileFunction,Paste,Top*%
%TF.FilePolarity,Positive*%
%FSLAX46Y46*%
G04 Gerber Fmt 4.6, Leading zero omitted, Abs format (unit mm)*
G04 Created by KiCad (PCBNEW 6.0.4-6f826c9f35~116~ubuntu21.10.1) date 2022-04-08 15:22:27*
%MOMM*%
%LPD*%
G01*
G04 APERTURE LIST*
G04 Aperture macros list*
%AMRoundRect*
0 Rectangle with rounded corners*
0 $1 Rounding radius*
0 $2 $3 $4 $5 $6 $7 $8 $9 X,Y pos of 4 corners*
0 Add a 4 corners polygon primitive as box body*
4,1,4,$2,$3,$4,$5,$6,$7,$8,$9,$2,$3,0*
0 Add four circle primitives for the rounded corners*
1,1,$1+$1,$2,$3*
1,1,$1+$1,$4,$5*
1,1,$1+$1,$6,$7*
1,1,$1+$1,$8,$9*
0 Add four rect primitives between the rounded corners*
20,1,$1+$1,$2,$3,$4,$5,0*
20,1,$1+$1,$4,$5,$6,$7,0*
20,1,$1+$1,$6,$7,$8,$9,0*
20,1,$1+$1,$8,$9,$2,$3,0*%
G04 Aperture macros list end*
%ADD10C,0.120000*%
%ADD11RoundRect,0.200000X0.200000X0.275000X-0.200000X0.275000X-0.200000X-0.275000X0.200000X-0.275000X0*%
%ADD12RoundRect,0.250000X0.475000X-0.250000X0.475000X0.250000X-0.475000X0.250000X-0.475000X-0.250000X0*%
%ADD13RoundRect,0.218750X0.256250X-0.218750X0.256250X0.218750X-0.256250X0.218750X-0.256250X-0.218750X0*%
%ADD14O,1.550000X0.890000*%
%ADD15O,0.950000X1.250000*%
%ADD16R,1.350000X0.400000*%
%ADD17R,1.550000X1.500000*%
%ADD18R,1.550000X1.200000*%
%ADD19RoundRect,0.100000X-0.637500X-0.100000X0.637500X-0.100000X0.637500X0.100000X-0.637500X0.100000X0*%
%ADD20R,1.750000X0.450000*%
%ADD21R,2.150000X0.950000*%
%ADD22R,2.150000X3.250000*%
%ADD23RoundRect,0.200000X-0.200000X-0.275000X0.200000X-0.275000X0.200000X0.275000X-0.200000X0.275000X0*%
%ADD24RoundRect,0.250000X-0.250000X-0.475000X0.250000X-0.475000X0.250000X0.475000X-0.250000X0.475000X0*%
%ADD25RoundRect,0.250000X-0.475000X0.250000X-0.475000X-0.250000X0.475000X-0.250000X0.475000X0.250000X0*%
%ADD26RoundRect,0.218750X-0.218750X-0.256250X0.218750X-0.256250X0.218750X0.256250X-0.218750X0.256250X0*%
%ADD27RoundRect,0.150000X-0.512500X-0.150000X0.512500X-0.150000X0.512500X0.150000X-0.512500X0.150000X0*%
%ADD28RoundRect,0.150000X-0.587500X-0.150000X0.587500X-0.150000X0.587500X0.150000X-0.587500X0.150000X0*%
%ADD29RoundRect,0.200000X0.275000X-0.200000X0.275000X0.200000X-0.275000X0.200000X-0.275000X-0.200000X0*%
%ADD30RoundRect,0.150000X0.150000X-0.825000X0.150000X0.825000X-0.150000X0.825000X-0.150000X-0.825000X0*%
%ADD31R,1.500000X0.650000*%
%ADD32R,2.700000X3.600000*%
G04 APERTURE END LIST*
D10*
%TO.C,BT1*%
X176620000Y-86480000D02*
X99520000Y-86480000D01*
X99520000Y-107180000D02*
X176620000Y-107180000D01*
X176620000Y-107180000D02*
X176620000Y-86480000D01*
X99520000Y-86480000D02*
X99520000Y-107180000D01*
%TD*%
D11*
%TO.C,R9*%
X185565000Y-71090000D03*
X183915000Y-71090000D03*
%TD*%
D12*
%TO.C,C7*%
X148200000Y-88780000D03*
X148200000Y-86880000D03*
%TD*%
%TO.C,C6*%
X123050000Y-99850000D03*
X123050000Y-97950000D03*
%TD*%
D11*
%TO.C,R10*%
X185175000Y-73810000D03*
X183525000Y-73810000D03*
%TD*%
D13*
%TO.C,D3*%
X185250000Y-69567500D03*
X185250000Y-67992500D03*
%TD*%
D14*
%TO.C,J1*%
X187500000Y-100640000D03*
D15*
X184800000Y-99640000D03*
X184800000Y-94640000D03*
D14*
X187500000Y-93640000D03*
D16*
X184800000Y-98440000D03*
X184800000Y-97790000D03*
X184800000Y-97140000D03*
X184800000Y-96490000D03*
X184800000Y-95840000D03*
D17*
X187500000Y-98140000D03*
D18*
X187500000Y-94240000D03*
X187500000Y-100040000D03*
D17*
X187500000Y-96140000D03*
%TD*%
D19*
%TO.C,U3*%
X115787500Y-93445000D03*
X115787500Y-94095000D03*
X115787500Y-94745000D03*
X115787500Y-95395000D03*
X121512500Y-95395000D03*
X121512500Y-94745000D03*
X121512500Y-94095000D03*
X121512500Y-93445000D03*
%TD*%
D12*
%TO.C,C2*%
X151740000Y-92370000D03*
X151740000Y-90470000D03*
%TD*%
D20*
%TO.C,U8*%
X177220000Y-80485000D03*
X177220000Y-81135000D03*
X177220000Y-81785000D03*
X177220000Y-82435000D03*
X177220000Y-83085000D03*
X177220000Y-83735000D03*
X177220000Y-84385000D03*
X177220000Y-85035000D03*
X177220000Y-85685000D03*
X177220000Y-86335000D03*
X177220000Y-86985000D03*
X177220000Y-87635000D03*
X177220000Y-88285000D03*
X177220000Y-88935000D03*
X184420000Y-88935000D03*
X184420000Y-88285000D03*
X184420000Y-87635000D03*
X184420000Y-86985000D03*
X184420000Y-86335000D03*
X184420000Y-85685000D03*
X184420000Y-85035000D03*
X184420000Y-84385000D03*
X184420000Y-83735000D03*
X184420000Y-83085000D03*
X184420000Y-82435000D03*
X184420000Y-81785000D03*
X184420000Y-81135000D03*
X184420000Y-80485000D03*
%TD*%
D21*
%TO.C,VR1*%
X144420000Y-94730000D03*
X144420000Y-92430000D03*
X144420000Y-90130000D03*
D22*
X138620000Y-92430000D03*
%TD*%
D23*
%TO.C,R3*%
X170837500Y-107480000D03*
X172487500Y-107480000D03*
%TD*%
D24*
%TO.C,C1*%
X174970000Y-113270000D03*
X176870000Y-113270000D03*
%TD*%
D23*
%TO.C,R1*%
X182347500Y-108910000D03*
X183997500Y-108910000D03*
%TD*%
D12*
%TO.C,C3*%
X148150000Y-92560000D03*
X148150000Y-90660000D03*
%TD*%
D25*
%TO.C,C8*%
X164430000Y-86710000D03*
X164430000Y-88610000D03*
%TD*%
D23*
%TO.C,R2*%
X182257500Y-107440000D03*
X183907500Y-107440000D03*
%TD*%
D26*
%TO.C,D2*%
X185932500Y-109070000D03*
X187507500Y-109070000D03*
%TD*%
D23*
%TO.C,R4*%
X113105000Y-99810000D03*
X114755000Y-99810000D03*
%TD*%
D25*
%TO.C,C9*%
X161200000Y-86730000D03*
X161200000Y-88630000D03*
%TD*%
D11*
%TO.C,R8*%
X136070000Y-102780000D03*
X134420000Y-102780000D03*
%TD*%
%TO.C,R5*%
X136115000Y-99720000D03*
X134465000Y-99720000D03*
%TD*%
D27*
%TO.C,U2*%
X116962500Y-98850000D03*
X116962500Y-99800000D03*
X116962500Y-100750000D03*
X119237500Y-100750000D03*
X119237500Y-99800000D03*
X119237500Y-98850000D03*
%TD*%
D11*
%TO.C,R7*%
X135995000Y-105480000D03*
X134345000Y-105480000D03*
%TD*%
D26*
%TO.C,D1*%
X185915000Y-107410000D03*
X187490000Y-107410000D03*
%TD*%
D28*
%TO.C,U4*%
X94222500Y-111420000D03*
X94222500Y-113320000D03*
X96097500Y-112370000D03*
%TD*%
D29*
%TO.C,R6*%
X108520000Y-113465000D03*
X108520000Y-111815000D03*
%TD*%
D13*
%TO.C,D4*%
X187910000Y-73717500D03*
X187910000Y-72142500D03*
%TD*%
D30*
%TO.C,U5*%
X133885000Y-113565000D03*
X135155000Y-113565000D03*
X136425000Y-113565000D03*
X137695000Y-113565000D03*
X137695000Y-108615000D03*
X136425000Y-108615000D03*
X135155000Y-108615000D03*
X133885000Y-108615000D03*
%TD*%
D25*
%TO.C,C10*%
X157650000Y-86620000D03*
X157650000Y-88520000D03*
%TD*%
D12*
%TO.C,C4*%
X155170000Y-88570000D03*
X155170000Y-86670000D03*
%TD*%
%TO.C,C5*%
X151740000Y-88600000D03*
X151740000Y-86700000D03*
%TD*%
D31*
%TO.C,U1*%
X174522500Y-106195000D03*
X174522500Y-107465000D03*
X174522500Y-108735000D03*
X174522500Y-110005000D03*
X179922500Y-110005000D03*
X179922500Y-108735000D03*
X179922500Y-107465000D03*
X179922500Y-106195000D03*
D32*
X177222500Y-108100000D03*
%TD*%
M02*
